<?xml version="1.0" encoding="UTF-8"?> <!-- Generator: Adobe Illustrator 25.2.1, SVG Export Plug-In . SVG Version: 6.00 Build 0) --> <svg xmlns="http://www.w3.org/2000/svg" xmlns:xlink="http://www.w3.org/1999/xlink" version="1.1" id="_x31_" x="0px" y="0px" viewBox="0 0 370 340" style="enable-background:new 0 0 370 340;" xml:space="preserve"> <style type="text/css"> .st0{fill:#7F7F7F;} .st1{fill:#535353;} .st2{fill:#686868;} .st3{fill:#CACACA;} .st4{fill:#D6D6D6;} .st5{fill:#EEEEEE;} .st6{fill:#ADADAD;} .st7{fill:#AFAAAA;} .st8{fill:#E2E2E2;} .st9{fill:#F6F6F6;} .st10{fill:#FFFFFF;} .st11{fill:#EC2584;} .st12{fill:#9B9B9B;} .st13{fill:#DBDADA;} .st14{fill:#E0E0E0;} .st15{fill:#CCCBCB;} .st16{fill:#FBFBFB;} .st17{fill:none;stroke:#535353;stroke-width:0.6084;stroke-miterlimit:10;} .st18{fill:none;stroke:#535353;stroke-width:0.6617;stroke-miterlimit:10;} .st19{fill:#F81984;} .st20{fill:#CF1984;} .st21{fill:#FAFAFA;} .st22{fill:#D8D8D8;} </style> <g> <path class="st0" d="M79.9,251.4c-0.7,1.2-1.4,2.3-2,3.5c-1.2,2.2-2.3,4.5-3.4,6.8c-0.5,0.8-1,1.6-1.5,2.4 c-0.1,0.2-0.1,0.3,0.1,0.4c-0.8,1.6-1.6,3.3-2.5,4.9c-5.5,10.3-11.8,20-16.7,30.6c-0.2,0.3,0.2,0.5,0.5,0.5 c0.5,0.1,0.9,0.1,1.4,0.2c1.4-2.1,2.9-4,4.6-5.9c6.2-9.4,12.2-18.9,17.9-28.6c2.8-4.7,5.5-9.8,8.5-14.7H79.9z"></path> </g> <g> <path class="st1" d="M89.7,245.3c0.1-0.2,0.2-0.4,0.3-0.6c0.2-0.4-0.2-0.5-0.7-0.5c0.2-0.4,0.5-0.8,0.7-1.2 c0.3-0.5-0.4-0.6-0.9-0.6c0-0.1,0.1-0.1,0.1-0.2c0.3-0.7-1.5-0.6-2.9-0.2c0.1-0.4,0.3-0.9,0.4-1.3c0.3-1.2-4.4-0.5-4.7,0.8 c-0.5,2.2-1.6,4.1-2.8,5.9c-0.9,1.4-2.2,2.5-2.3,4.3c-0.2,2.6,5.3,3.3,7,3.8c1.2,0.4,3.6-0.2,4.3-1.4c1.8-2.8,3.3-5.8,4.8-8.8 C93.3,244.5,91.2,244.8,89.7,245.3z"></path> </g> <g> <g> <path class="st2" d="M55.6,294.6c0,0-0.1,0-0.1,0c-0.1,0-0.4,0-0.4,0.2c-0.1,0.1,0.1,0.2,0.2,0.2c1.5,0,3,0,4.5,0.1 c0.3,0,0.7,0,1,0.1c0.1,0,0.3,0,0.5-0.1c0.1-0.1,0.1-0.2-0.1-0.2c-0.7-0.1-1.5-0.1-2.3-0.1c-0.9,0-1.8,0-2.7,0c-0.2,0-0.4,0-0.6,0 c-0.1,0.1-0.2,0.2-0.3,0.3c0,0,0.1,0,0.1,0c0.1,0,0.4,0,0.4-0.2C55.8,294.6,55.7,294.6,55.6,294.6L55.6,294.6z"></path> </g> </g> <g> <g> <path class="st2" d="M57.6,292.9c-0.2-0.1-0.4-0.2-0.6-0.3c-0.2-0.1-0.3-0.1-0.5-0.1c-0.1,0-0.4,0-0.4,0.2 c-0.1,0.1,0.1,0.2,0.2,0.2c2.3,0,4.6,0,6.8,0c0.1,0,0.4,0,0.4-0.2c0.1-0.1-0.1-0.2-0.2-0.2c-2.3,0-4.6,0-6.8,0 c-0.1,0-0.4,0-0.4,0.2c-0.1,0.1,0.1,0.2,0.2,0.2c0.1,0,0.2,0,0.3,0c-0.1,0-0.1,0-0.2-0.1c0.2,0.2,0.4,0.2,0.7,0.3 c0.1,0.1,0.3,0,0.5,0C57.6,293.1,57.7,292.9,57.6,292.9L57.6,292.9z"></path> </g> </g> <g> <g> <path class="st1" d="M85.5,252.9c-4.8,8.1-9.7,16.3-14.5,24.4c-0.7,1.2-1.4,2.3-2.1,3.5c-0.2,0.3,0.5,0.2,0.6,0 c4.8-8.1,9.7-16.3,14.5-24.4c0.7-1.2,1.4-2.3,2.1-3.5C86.3,252.6,85.6,252.6,85.5,252.9L85.5,252.9z"></path> </g> </g> <g> <path class="st3" d="M137.6,221.3c-6.5-7.6-16.6-11.5-24.9-16.7c-4.7-2.9-8.9-6.3-12.2-10.7c-3.8-5.1-5.3-11.6-6.6-17.7 c-1.4-6.6-2.5-13.2-4.8-19.6c-1-2.8-2.2-5.6-4-8c-0.2-0.2-0.4-0.5-0.6-0.7c0.7-4.4-4.7-7.1-8-8.5c-4.6-2-9.3-2.6-14.1-0.8 c-9.9,3.9-14.7,15.2-17.1,24.8c-3.4,13.5-1.3,27.9,3.4,40.8c4.4,11.8,10.5,23.4,19.9,31.9c4.6,4.1,9.5,8.2,15,11.1 c5.5,2.9,11.7,4.1,17.8,5.2c12.2,2.3,26.3,2.8,36.4-5.5c1.6-1.4,2.4-3.8,0.5-5.3c1.8-2.1,3-4.6,3.6-7.3 C143,229.5,140.6,224.8,137.6,221.3z"></path> </g> <path class="st1" d="M118.8,229.1C118.8,229.1,118.8,229.1,118.8,229.1c-1.4,1.5-3,2.6-4.7,3.1c-4.5,1.4-9.6-0.8-15.1-6.1l-16.7,9.4 c1.4,1.7,3,3.3,4.7,4.9C116.6,267.9,128.7,226,118.8,229.1z"></path> <g> <path class="st4" d="M14.5,169.4c0,1-0.8,1.8-1.8,1.8c-1,0-1.8-0.8-1.8-1.8c0-1,0.8-1.8,1.8-1.8C13.7,167.6,14.5,168.4,14.5,169.4z "></path> <path class="st5" d="M23.7,95.9c-0.5-1.3-2.6-2-5.9-2c-3.3,0-5.6,0.7-6.3,2.2c-0.7,1.4-7.9,42.3-7.9,44.8c-0.1,1,2.1,1.6,3.7,2 c3.2,0.7,6.9,0.9,10.4,0.9c3.4,0,6.8-0.3,10-0.9c1.9-0.4,4.2-1.1,4.4-2.2C32,139.2,24.2,97,23.7,95.9z M25.8,141.1 c-2.5,0.4-5.2,0.5-7.9,0.6c-2.5,0-5.1-0.2-7.5-0.5c-1.4-0.2-3.4-0.6-3.8-1.4c-0.3-0.7,2.3-1.1,3.1-1.3c2.5-0.4,5.2-0.5,7.9-0.6 c2.7,0,5.5,0.2,8,0.6c1.3,0.2,3,0.6,3.3,1.4C28.8,140.6,27,140.9,25.8,141.1z"></path> <path class="st5" d="M16.5,134.8c-0.1,4.8-0.2,9.7-0.2,14.5c0,11.3,0,22.5-0.3,33.8c-0.6,21.8-0.6,43.5-0.6,65.3 c0,1.1,3.8,0.4,3.8-1.1c0-21.9,0.1-43.7,0.6-65.6C20,170.9,20,160,20,149.1c0-4.8,0.1-9.5,0.2-14.3H16.5z"></path> <path class="st5" d="M28.9,252.7c-6.5,0-8.4-8-11.9-8c-3.6,0-5.4,8-11.9,8c-6.5,0-4.8,1.7,0,1.7c1.5,0,3.8,0,6.3,0c0,0,6,0,11.3,0 c2.5,0,4.8,0,6.3,0C33.8,254.4,35.4,252.7,28.9,252.7z"></path> <g> <g> <path class="st6" d="M12.4,139.8c0,8.4,0,16.9,0,25.3c0,1.2,0,2.4,0,3.6c0,0.2,0.5,0.1,0.5-0.1c0-8.4,0-16.9,0-25.3 c0-1.2,0-2.4,0-3.6C12.9,139.5,12.4,139.6,12.4,139.8L12.4,139.8z"></path> </g> </g> </g> <path class="st4" d="M356.3,105.2c3,3.5,11.1,11.7,8.7,16.5c-3.4-1.7-7.8-4.4-11.6-4.3v0.3c4.9-3.1,6.6-11.4,0.6-14.2L356.3,105.2z"></path> <path class="st4" d="M340,110c-0.9-1.4-1.7-2.9-2.5-4.3c-1.2-2.5-2.4-5-3.7-7.5c-6.2,2.9-12.4,8-15.2,13.1c3.7,1.1,7.8,4,10.1,6.6 l-0.2-0.3C331.1,114.5,335.5,111.7,340,110z"></path> <path class="st7" d="M304.5,109.9c-0.8-6.7,5.3-14.9,10.1-19.5c-3.2-0.8-5.8-2.4-8.4-4.6c-2.7,3.1-5,6.4-6.4,10.4L304.5,109.9z"></path> <path class="st8" d="M331,91.6c-0.4-1.7-1.9-3-3.7-2.7c-0.3,0-0.5,0.1-0.7,0.2c-1.1,0.2-2.1,0.8-2.5,1.8c-0.4,1-0.3,2.2,0.1,3.2 c0,0.2,0,0.4,0,0.6c0,0.4,0.3,0.5,0.7,0.6c1.1,1.3,2.9,1.3,4.4,0.6C330.9,95.2,331.5,93.4,331,91.6z"></path> <path class="st4" d="M265,109.5c-1.3-1.8-3.9-1.7-5.7-0.6c-1,0.3-1.9,0.9-2.4,1.7c-0.8,1.3-0.9,2.9-0.4,4.3c1.3,3.7,6.9,3,9.2,0.9 C267.4,114.1,266.2,111,265,109.5z"></path> <path class="st9" d="M248.8,110.2c-1-1.4-3-1.3-4.5-0.5c-0.8,0.3-1.5,0.7-1.9,1.4c-0.7,1-0.7,2.3-0.3,3.4c1,2.9,5.4,2.4,7.2,0.7 C250.6,113.8,249.7,111.4,248.8,110.2z"></path> <path class="st9" d="M227,126.8c-1.6-2.3-5-3.1-6.9-1c-1.2,0.8-1.9,2.3-2,3.9c-0.1,3.8,3.1,5.5,6.5,4.5 C228.3,133.2,229.1,129.8,227,126.8z"></path> <g> <g> <path class="st6" d="M210.3,122.6c-1.8,0.3-3.1,1.9-3.2,3.7c-0.1,0.9,0.1,1.7,0.6,2.5c0.5,0.8,1.3,1.3,2.3,1.5 c1.5,0.4,3.1,0,4.1-1.2c0.9-1.1,1.2-2.6,0.8-4c-0.5-1.9-2.3-2.8-4.1-2.9c-0.1,0-0.4,0-0.4,0.2c-0.1,0.1,0,0.2,0.2,0.2 c1.5,0.1,2.9,0.7,3.5,2.1c0.5,1.1,0.4,2.5-0.1,3.6c-0.6,1.1-1.6,1.8-2.9,1.7c-1.7-0.1-3-1.3-3.2-3c-0.2-1.7,0.7-3.7,2.5-4 c0.1,0,0.3-0.1,0.3-0.2C210.6,122.6,210.4,122.6,210.3,122.6L210.3,122.6z"></path> </g> </g> <g> <g> <path class="st6" d="M247.9,108.7c-1.7-0.7-3.7-0.7-5.3,0.1c-0.8,0.3-1.5,0.9-1.9,1.6c-0.5,0.7-0.6,1.6-0.4,2.5 c0.3,1.7,1.6,3.3,3.4,3.5c1.6,0.1,3.2-0.6,4.1-1.9c0.5-0.7,0.9-1.5,0.9-2.4c0-1.1-0.4-2-1.1-2.8c-0.1-0.1-0.7,0.1-0.6,0.2 c1,1.2,1.4,2.9,0.7,4.3c-0.6,1.2-1.8,2.1-3.2,2.2c-1.6,0.1-2.9-1-3.4-2.4c-0.3-0.8-0.4-1.7-0.2-2.5c0.2-0.7,0.7-1.3,1.3-1.7 c1.5-1,3.5-1,5.1-0.3C247.5,109,248.1,108.8,247.9,108.7L247.9,108.7z"></path> </g> </g> <g> <g> <path class="st1" d="M259.5,114c-3.1-1.7-8.7-0.2-8,4.1c0.3,1.8,1.6,3.2,3.5,3.5c1.6,0.2,3.4-0.4,4.6-1.5c0.6-0.6,1.1-1.3,1.2-2.2 c0.1-1-0.2-2-0.8-2.8c-0.1-0.2-0.7,0-0.6,0.3c0.9,1.3,1.1,2.9,0.1,4.1c-0.9,1.1-2.3,1.7-3.7,1.7c-1.5,0-2.9-0.9-3.4-2.3 c-0.6-1.7-0.4-3.6,1.3-4.5c1.5-0.9,3.7-0.9,5.3-0.1C259.2,114.4,259.7,114.1,259.5,114L259.5,114z"></path> </g> </g> <g> <g> <path class="st10" d="M259.3,111.1c0.4-0.6,1-1.2,1.7-1.4c0.7-0.2,1.4,0,2,0.3c1.3,0.7,2,2.2,1.8,3.6c0,0.1,0.6,0,0.6-0.2 c0.2-1.7-0.7-3.4-2.4-3.9c-1.6-0.5-3.4,0.3-4.3,1.7c-0.1,0.1,0.2,0.1,0.2,0.1C259,111.2,259.2,111.2,259.3,111.1L259.3,111.1z"></path> </g> </g> <g> <g> <path class="st1" d="M353.6,117.8c3.5-2.3,5.8-7.4,3.8-11.4c-2.4-5-9.3-4.5-13.6-3c-3,1-5.8,2.6-8.1,4.7c-0.1,0-0.1,0.1,0,0.2 c2.5,2.8,5.2,5.4,7.5,8.4c0.1,0.2,0.4,0.1,0.5-0.1c1.8-2.2,4.3-3.8,6.8-4.8c2.6-1.1,5.9-1.7,8.4,0.2c0.2,0.1,0.8-0.1,0.5-0.3 c-2.5-1.8-5.8-1.4-8.5-0.4c-2.9,1-5.8,2.8-7.8,5.2c0.2,0,0.4,0,0.5-0.1c-1.2-1.5-2.4-3-3.8-4.4c-0.6-0.7-1.3-1.4-1.9-2 c-0.4-0.4-1.7-1.5-1.5-2c0.2-0.5,1.4-1.1,1.8-1.4c0.7-0.5,1.5-0.9,2.2-1.4c1.5-0.8,3-1.4,4.6-1.9c3-0.8,6.7-1,9.5,0.8 c2.1,1.4,2.9,3.9,2.7,6.3c-0.3,2.8-1.9,5.5-4.3,7.1C352.8,117.8,353.4,118,353.6,117.8L353.6,117.8z"></path> </g> </g> <g> <g> <path class="st1" d="M353.4,117.6c4.1-0.1,7.9,2.5,11.4,4.2c0.2,0.1,0.5,0,0.5-0.1c1.4-2.9-0.6-6.2-2.1-8.6 c-1.9-2.9-4.3-5.4-6.6-8c-0.2-0.2-0.8,0-0.6,0.3c2.1,2.5,4.4,4.8,6.2,7.5c1.6,2.3,3.9,5.9,2.5,8.8c0.2,0,0.4-0.1,0.5-0.1 c-3.7-1.9-7.5-4.4-11.8-4.3C353.1,117.2,352.9,117.6,353.4,117.6L353.4,117.6z"></path> </g> </g> <g> <g> <path class="st1" d="M328.8,117.5c2.3-2.7,5.4-4.7,8.6-6.3c3.3-1.6,7-2.8,10.7-3c0.1,0,0.5-0.1,0.4-0.2c-2.4-4.1-4.8-8.3-7.8-12.1 c-0.1-0.1-0.7,0.1-0.6,0.2c3,3.7,5.4,7.9,7.8,12c0.1-0.1,0.3-0.2,0.4-0.2c-3.7,0.2-7.4,1.3-10.7,2.9c-3.5,1.6-6.9,3.8-9.4,6.7 C328.1,117.7,328.7,117.7,328.8,117.5L328.8,117.5z"></path> </g> </g> <g> <g> <path class="st1" d="M329,117.7c-2.2-2.4-4.9-4.4-7.9-5.7c-0.4-0.2-2-0.5-2.1-0.9c-0.1-0.4,1-1.6,1.3-2c0.9-1.3,1.9-2.4,3.1-3.5 c4.6-4.5,10.6-8.3,17-9.4c0.3,0,0.5-0.4,0.1-0.3c-4.5,0.7-8.8,2.9-12.5,5.4c-3.8,2.6-7.4,5.9-9.7,10c0,0.1,0,0.1,0,0.2 c3.8,1.2,7.4,3.6,10,6.5C328.5,118.1,329.1,117.9,329,117.7L329,117.7z"></path> </g> </g> <g> <g> <path class="st1" d="M338,96.6c0.6,1.8,1.8,3.4,2.8,5c1.2,1.9,2.5,3.7,3.6,5.7c0.1,0.2,0.7,0,0.6-0.2c-1-1.9-2.3-3.7-3.5-5.5 c-1.1-1.6-2.3-3.3-2.9-5.2C338.5,96.2,337.9,96.4,338,96.6L338,96.6z"></path> </g> </g> <g> <g> <path class="st1" d="M341.6,105.1c-0.1-0.1-0.4-0.1-0.5,0c-0.1,0-0.1,0.1-0.1,0.2c0,0.1,0.1,0.2,0.2,0.3c0.2,0.3,0.4,0.6,0.6,0.9 c0,0.1,0.1,0.1,0.1,0.2c0,0,0,0,0,0c0,0,0,0.1,0,0c0,0,0,0,0,0.1c0.1,0.1,0.2,0.1,0.4,0.1c0.1,0,0.2-0.1,0.2-0.1 c0,0,0.1-0.1,0.1-0.1c-0.1-0.2-0.3-0.4-0.4-0.7c-0.2-0.2-0.3-0.5-0.5-0.7c0,0,0,0,0-0.1C341.7,105.2,341.7,105.2,341.6,105.1 C341.7,105.2,341.7,105.2,341.6,105.1C341.7,105.1,341.7,105.1,341.6,105.1C341.6,105.1,341.6,105.1,341.6,105.1 C341.6,105.1,341.6,105.1,341.6,105.1c0,0,0,0.1,0,0.1c-0.1,0-0.1,0.1-0.2,0.1c0,0,0,0,0,0c-0.1,0-0.2,0-0.2,0 c-0.1,0-0.1,0-0.2-0.1c0,0,0,0,0,0c0.1,0.1,0.3,0.1,0.4,0C341.5,105.3,341.7,105.2,341.6,105.1L341.6,105.1z"></path> </g> </g> <g> <g> <path class="st1" d="M327.8,113.8c0-0.1,0.1-0.2,0.1-0.3c0-0.1,0.1-0.1,0.1-0.2c0,0,0,0,0-0.1c0,0,0,0,0,0c0,0,0,0,0,0 c0.1-0.1,0.1-0.2,0.2-0.3c0,0,0.1-0.1,0.1-0.1c0,0,0,0,0.1-0.1c0,0,0,0,0,0c0.1-0.1,0.2-0.1,0.3-0.2c0,0,0,0,0.1,0c0,0,0,0,0,0 c0.1,0,0.1-0.1,0.2-0.1c0.1,0,0.1-0.1,0.2-0.1c0.1,0-0.1,0,0,0c0,0,0.1,0,0.1,0c0.1,0,0.1,0,0.2,0c0,0,0.1,0,0.1,0c0,0,0,0,0,0 c0,0,0,0,0,0c0.1,0,0.3-0.1,0.3-0.3c0-0.2-0.2-0.2-0.3-0.2c-0.6,0.1-1.1,0.3-1.6,0.7c-0.4,0.4-0.7,0.8-0.9,1.3 C327,114,327.7,114.1,327.8,113.8L327.8,113.8z"></path> </g> </g> <g> <g> <path class="st1" d="M327.6,111.5C327.6,111.4,327.6,111.4,327.6,111.5c-0.3,0-0.4,0.1-0.6,0.2c0.5,0.5,1.1,1.1,1.6,1.6 c0.1,0.1,0.2,0.2,0.3,0.3c0.1,0.1,0.3,0.1,0.4,0c0.1,0,0.3-0.2,0.1-0.3c-0.6-0.6-1.1-1.1-1.7-1.7 C327.7,111.5,327.6,111.5,327.6,111.5c-0.2-0.2-0.4-0.2-0.5-0.1c-0.1,0.1-0.3,0.2-0.1,0.3c0,0,0,0,0.1,0.1c0.1,0.1,0.3,0.1,0.4,0 C327.5,111.7,327.7,111.6,327.6,111.5L327.6,111.5z"></path> </g> </g> <g> <g> <path class="st1" d="M333.4,103.4c-0.3-0.5-0.8-0.9-1.4-1c-0.6-0.2-1.3-0.1-1.9,0.2c-0.7,0.4-1.4,1.5-1.1,2.4 c0.2,0.6,0.8,1.1,1.5,1.2c0.7,0.2,1.6,0.1,2.3-0.3c0.9-0.6,0.9-1.7,0.8-2.7c0-0.1-0.7,0-0.6,0.2c0.1,0.7,0.2,1.7-0.4,2.3 c0,0-0.1,0.1-0.1,0.1c0,0,0,0-0.1,0.1c0,0,0,0-0.1,0c0,0,0,0,0,0c0,0-0.1,0-0.1,0c-0.1,0,0,0,0,0c0,0,0,0,0,0c-0.1,0,0.1,0,0,0 c0,0-0.1,0-0.1,0c0.1,0,0,0-0.1,0c0,0,0,0,0,0c0.1,0,0,0,0,0c0,0-0.1,0-0.1,0c0,0,0,0,0,0c-0.1,0,0,0,0,0c-0.2,0-0.3,0-0.4,0 c-0.6-0.1-1.1-0.4-1.4-0.9c-0.4-0.6-0.2-1.3,0.2-1.9c0.2-0.3,0.4-0.5,0.7-0.7c0.2-0.1,0.4-0.1,0.6,0c0.6,0.1,1.1,0.5,1.4,1 C332.9,103.8,333.5,103.5,333.4,103.4L333.4,103.4z"></path> </g> </g> <path class="st4" d="M297,117.9c-7-5-5.3-18.5-3.7-25.8c4.1,0,7.9,0.6,12,0.2c-4.6,5.6-2.9,15.7,2.3,20.3l0,0 C303.9,114.1,300.7,115.8,297,117.9z"></path> <path class="st7" d="M292.6,95.8c-0.2,1.5-0.5,3.1-0.6,4.7c3.6,0.3,7.1,0.2,10.7,0.2c0-1.8,0.3-3.6,0.9-5.2 C300,95.4,296.2,95.2,292.6,95.8z"></path> <g> <g> <path class="st1" d="M301.6,109.5c0.3,1.4,0.9,2.8,1.9,3.9c0.2,0.2,0.8,0,0.6-0.3c-0.9-1.1-1.5-2.4-1.8-3.8 C302.2,109,301.5,109.2,301.6,109.5L301.6,109.5z"></path> </g> </g> <g> <g> <path class="st1" d="M300.8,111.8c1.2-0.2,2.4-0.5,3.4-1c0.1,0,0.2-0.2,0.1-0.2c-0.1-0.1-0.3,0-0.4,0.1c-0.6,0.3-1.3,0.5-1.9,0.6 c-0.3,0.1-0.5,0.1-0.7,0.2c-0.1,0-0.2,0-0.3,0.1c-0.1,0-0.3,0.1-0.4,0.2C300.5,111.9,300.7,111.9,300.8,111.8L300.8,111.8z"></path> </g> </g> <g> <g> <path class="st1" d="M300.1,97.1C300.1,97.1,300.1,97,300.1,97.1C300.1,97,300.1,97.1,300.1,97.1C300.1,97.1,300.1,97,300.1,97.1 C300,97.1,300.2,97,300.1,97.1C300,97.1,300.1,97,300.1,97.1C300.1,97,300.1,97,300.1,97.1C300.1,97,300.1,97,300.1,97.1 c0.1-0.1,0.1-0.1,0.1-0.1C300.2,97,300.2,97,300.1,97.1c0.1-0.1,0.2-0.1,0.3-0.1c0,0,0.1,0,0,0c0,0,0,0,0,0c0,0,0.1,0,0.1,0 c0.1,0,0.1,0,0.2,0c0.1,0,0,0,0,0c0,0,0,0,0,0c0,0,0.1,0,0.1,0c0.1,0,0.1,0,0.2,0c0.1,0,0.3,0,0.4-0.1c0,0,0.1-0.1,0.1-0.1 c0-0.1-0.1-0.1-0.1-0.1c-0.3-0.1-0.7-0.1-1-0.1c-0.2,0-0.4,0.1-0.5,0.1c-0.1,0.1-0.3,0.2-0.4,0.3c-0.1,0.1,0.1,0.2,0.2,0.2 C299.8,97.2,300,97.2,300.1,97.1L300.1,97.1z"></path> </g> </g> <g> <g> <path class="st1" d="M304.8,108.1c0.4-6.8,5.4-13.1,10.1-17.7c0.1-0.1,0.1-0.2-0.1-0.3c-3.2-0.8-5.8-2.5-8.3-4.5 c-0.1-0.1-0.4,0-0.5,0.1c-2.2,2.5-4.2,5.2-5.6,8.3c-0.1,0.3,0.5,0.3,0.6,0.1c1.4-3,3.3-5.7,5.5-8.2c-0.2,0-0.3,0.1-0.5,0.1 c2.5,2.1,5.2,3.8,8.4,4.6c0-0.1,0-0.2-0.1-0.3c-2.5,2.4-4.8,5.2-6.6,8.2c-1.8,3-3.4,6.3-3.6,9.8 C304.1,108.5,304.8,108.4,304.8,108.1L304.8,108.1z"></path> </g> </g> <path class="st9" d="M290.3,118.1c1.2-4,3.7-7.9,5.6-11.6c-6.6,0-14.2-7.2-11.6-13.9c0,0-8.2,6.4-10.8,5.2c0,0-3.5,4.3,1.8,9.7 C280.8,112.9,290.3,118.1,290.3,118.1z"></path> <path class="st4" d="M284.4,92.6c0,0-8.2,6.4-10.8,5.2c0,0-3.5,4.3,1.8,9.7c2,2,4.7,4,7.2,5.8c0.2-0.4,0.4-0.8,0.5-1.1 c1.8-2.1,3.4-4.4,4.8-6.8c0.2-0.4,0.6-0.9,1-1.4C285.2,101.2,282.7,96.8,284.4,92.6z"></path> <path class="st4" d="M290.1,118c0.3-0.7,0.6-1.3,1-2c1.3-3.3,3.3-6.5,4.9-9.5c-0.9,0-1.8-0.1-2.7-0.4c-1.4,2.5-3.1,4.9-4.6,7.4 c-0.5,0.9-1.1,1.7-1.7,2.6C288.5,117,289.6,117.7,290.1,118z"></path> <g> <g> <path class="st1" d="M284.1,92.7c-2.6,7.1,5.1,13.9,11.8,14.1c-0.1-0.1-0.1-0.1-0.2-0.2c-2.1,3.8-4.3,7.5-5.7,11.6 c-0.1,0.3,0.6,0.2,0.6-0.1c1.3-4.1,3.6-7.8,5.6-11.5c0.1-0.1-0.1-0.2-0.2-0.2c-6.5-0.1-13.9-6.8-11.4-13.7 C284.8,92.3,284.1,92.4,284.1,92.7L284.1,92.7z"></path> </g> </g> <g> <g> <path class="st2" d="M275.4,101.3c0.5-0.8,1.5-1.2,2.4-1.2c0.1,0,0.3,0,0.4-0.1c0.1-0.1,0.1-0.1,0-0.1c-0.7,0-1.4,0.2-2.1,0.5 c-0.5,0.2-1,0.6-1.3,1.1c-0.1,0.1,0.2,0.1,0.3,0.1C275.1,101.4,275.3,101.4,275.4,101.3L275.4,101.3z"></path> </g> </g> <g> <g> <path class="st2" d="M275.5,99.2c0,0.3-0.2,0.4-0.4,0.6c-0.2,0.2-0.6,0.3-0.9,0.4c-0.3,0.1-0.7,0.3-1,0.4 c-0.3,0.1-0.6,0.3-0.9,0.5c-0.2,0.2-0.4,0.4-0.2,0.7c0.1,0.2,0.7,0,0.6-0.2c-0.1-0.2,0-0.4,0.1-0.5c0.1-0.1,0.2-0.1,0.3-0.2 c0.2-0.1,0.2-0.1,0.4-0.2c0.7-0.3,1.4-0.5,2-1c0.3-0.2,0.5-0.4,0.6-0.8C276.2,98.9,275.6,99,275.5,99.2L275.5,99.2z"></path> </g> </g> <g> <g> <path class="st1" d="M284.1,105.9c1.1-0.2,1.9-1.1,1.9-2.3c0-1-0.5-2.1-1.4-2.5c-1.1-0.5-2.7,0-3.3,1c-0.6,1-0.4,2.3,0.2,3.1 c0.4,0.5,1,0.9,1.6,1c0.8,0.2,1.7-0.1,2.4-0.4c0.1-0.1,0.2-0.2,0.1-0.2c-0.1-0.1-0.3,0-0.4,0.1c-0.5,0.3-1,0.4-1.6,0.3 c-0.5-0.1-0.9-0.4-1.3-0.7c-0.7-0.7-0.9-1.8-0.6-2.7c0.3-0.9,1.4-1.5,2.3-1.2c0.9,0.3,1.4,1.2,1.5,2.1c0.1,1-0.3,2-1.4,2.2 c-0.1,0-0.3,0.1-0.3,0.2C283.8,106,284,105.9,284.1,105.9L284.1,105.9z"></path> </g> </g> <g> <g> <path class="st1" d="M291.5,105.5c-0.3,1.8-1.2,3.4-2.1,4.9c-0.9,1.6-2,3.1-2.9,4.7c-0.2,0.3,0.5,0.3,0.6,0.1 c1.7-3.1,4.3-6.1,5.1-9.7C292.2,105.1,291.6,105.2,291.5,105.5L291.5,105.5z"></path> </g> </g> <g> <g> <path class="st6" d="M284,116c-2,0.4-4.1-0.2-5.9,0.9c-0.5,0.3-0.8,0.6-1.2,1c-0.8,0.8-1.6,1.5-2.6,2c-2.4,1.3-5.2,0-7.7,0.9 c-2.1,0.8-3.4,2.8-5.4,3.8c-0.4,0.2,0.2,0.2,0.4,0.1c2.1-1.1,3.5-3.5,5.9-3.9c2.3-0.4,4.5,0.4,6.7-0.6c1.5-0.7,2.5-1.7,3.7-2.8 c1.7-1.5,4.2-0.7,6.2-1.2C284.5,116.2,284.4,115.9,284,116L284,116z"></path> </g> </g> <g> <g> <path class="st6" d="M250.1,120.1c-0.4-1.2-1.1-2.3-2.4-1.6c-1.1,0.6-1.7,1.9-2.7,2.6c-0.8,0.5-2.1,0.5-3,0.5 c-0.9,0.1-1.9,0.1-2.8,0.3c-2.1,0.3-4,1.2-5.7,2.5c-0.3,0.3,0.2,0.5,0.4,0.3c1.7-1.3,3.5-2.1,5.7-2.4c1.6-0.2,3.3-0.3,4.9-0.6 c1.1-0.2,1.7-1,2.4-1.8c0.4-0.4,0.8-1,1.4-1.1c0.8-0.2,1.1,0.9,1.3,1.5C249.5,120.6,250.2,120.4,250.1,120.1L250.1,120.1z"></path> </g> </g> <g> <g> <path class="st6" d="M245.4,124c-1.3,0-1.9,0.5-2.7,1.5c-0.9,1.1-2.7,2.1-4.1,1.8c-1.3-0.3-2.3-0.4-3.6-0.3 c-1.1,0.1-2.6,0.2-3.4,1c-0.6,0.6-0.5,1.5-0.5,2.2c0,1.4-0.5,3.3-1.9,3.9c-0.5,0.2-0.8,0.4-1.3,0.7c-0.6,0.3-1,0.2-1.6,0.3 c-1.1,0.2-1,1.3-1,2.2c0.2-0.1,0.3-0.2,0.5-0.2c-1-0.4-2.2-0.8-3.2-0.4c-1.1,0.5-1.3,1.8-1.2,2.9c0.2-0.1,0.3-0.2,0.5-0.2 c-1.2-0.3-3.3-0.7-3.6,1c-0.1,0.7,0.1,1.4-0.1,2.1c-0.3,1.6-2.8,2.5-4.2,2.9c-3.3,1.1-6.6,2-9.7,3.7c-3,1.6-5.8,3.6-8.1,6 c-0.3,0.3,0.3,0.4,0.5,0.2c2.4-2.4,5.1-4.4,8.1-6c3-1.6,6.1-2.5,9.3-3.5c1.6-0.5,4.3-1.4,4.7-3.3c0.1-0.6,0-1.3,0.1-1.9 c0.1-1.5,1.5-1.1,2.6-0.9c0.1,0,0.5,0,0.5-0.2c0-0.9,0-2,0.9-2.5c0.8-0.4,1.8,0.1,2.6,0.4c0.1,0.1,0.5,0,0.5-0.2 c0-0.4-0.1-1,0.1-1.3c0.3-0.6,0.4-0.3,0.8-0.4c0.3,0,0.6,0,0.9-0.1c0.5-0.2,1-0.6,1.5-0.8c0.3-0.1,0.6-0.2,0.8-0.4 c0.8-0.7,1.4-1.9,1.6-3c0.1-0.8-0.1-1.8,0.2-2.6c0.5-1.4,3-1.3,4.2-1.3c1,0,1.8,0.4,2.8,0.4c0.9,0.1,1.8-0.4,2.5-0.8 c0.5-0.3,1.1-0.6,1.5-1c0.8-0.8,1-1.7,2.3-1.6C245.5,124.4,245.8,124,245.4,124L245.4,124z"></path> </g> </g> <g> <g> <path class="st6" d="M204,128.6c0.2,1.2,0,2.4-0.8,3.4c-0.8,0.9-2,1.4-3.1,1.9c-2.5,0.9-5.2,1.4-7.5,2.8c-1.1,0.7-2,1.6-2.5,2.9 c-0.1,0.2,0.6,0.1,0.6-0.1c0.9-2.6,3.9-3.5,6.3-4.3c2.3-0.7,5-1.3,6.7-3.2c0.9-1,1.1-2.3,0.9-3.6C204.6,128.2,204,128.3,204,128.6 L204,128.6z"></path> </g> </g> <g> <g> <path class="st6" d="M202,128.6c0.1,1.3-0.2,2.1-1.4,2.7c-0.5,0.3-1.3,0.8-1.9,0.8c-0.7,0-1.3-0.2-2-0.2c-1.2,0-2,0.8-2.8,1.6 c-1.1,1-3,1.3-4.4,1.4c-0.2,0-0.7,0.3-0.3,0.3c0.8,0,1.6-0.2,2.3-0.4c0.7-0.2,1.4-0.3,2-0.6c0.6-0.3,1.1-0.9,1.6-1.3 c0.5-0.4,0.9-0.7,1.6-0.6c0.4,0,0.8,0.1,1.3,0.2c1.2,0.1,2.3-0.6,3.4-1.2c1-0.6,1.2-1.6,1.2-2.7C202.6,128.2,202,128.4,202,128.6 L202,128.6z"></path> </g> </g> <g> <g> <path class="st6" d="M212.5,136c0.1,0.9,0.1,1.8-0.5,2.5c-0.5,0.6-1.4,0.9-2.1,1.1c-1.9,0.5-3.9,0.5-5.8,1.2 c-1,0.4-1.9,0.9-2.6,1.7c-0.2,0.2,0.5,0.1,0.6,0c1.4-1.6,3.7-1.9,5.6-2.2c1.6-0.3,3.7-0.4,4.8-1.7c0.7-0.7,0.7-1.8,0.6-2.7 C213.1,135.7,212.5,135.8,212.5,136L212.5,136z"></path> </g> </g> <g> <g> <path class="st6" d="M240.7,118.7c-2.7,0.2-5.1,1.5-7.4,2.9c-0.1,0.1-0.1,0.1,0,0.1c0.1,0,0.3-0.1,0.4-0.1 c2.1-1.2,4.2-2.5,6.6-2.6c0.1,0,0.4,0,0.4-0.2C240.9,118.7,240.9,118.7,240.7,118.7L240.7,118.7z"></path> </g> </g> <g> <g> <path class="st11" d="M354.9,120c4.9,2.2,9.9,4.1,14.3,7.2c0.1,0.1,0.7-0.2,0.6-0.2c-4.4-3-9.5-5-14.3-7.2 C355.3,119.7,354.8,120,354.9,120L354.9,120z"></path> </g> </g> <g> <g> <path class="st1" d="M305.1,92.3c-4.6,5.9-3.1,15.6,2.3,20.4c0.1-0.1,0.1-0.2,0.2-0.3c-3.7,1.5-7.3,3.4-10.7,5.4 c-0.4,0.2,0.2,0.3,0.4,0.2c3.4-2,6.9-3.8,10.6-5.3c0.1,0,0.3-0.2,0.2-0.3c-5.3-4.8-6.8-14.4-2.3-20.1 C305.9,92.1,305.3,92.1,305.1,92.3L305.1,92.3z"></path> </g> </g> <g> <g> <path class="st1" d="M305.5,92.2c-4,0.4-8-0.1-12-0.2c-0.1,0-0.4,0.1-0.4,0.2c-1,4.5-1.7,9.2-1.4,13.8c0.2,4.4,1.4,9.3,5.1,12.1 c0.2,0.1,0.7-0.1,0.6-0.2c-3.7-2.8-4.8-7.6-5.1-12c-0.2-4.6,0.4-9.2,1.4-13.7c-0.1,0.1-0.3,0.1-0.4,0.2c4,0,8.1,0.6,12.1,0.1 C305.7,92.5,305.9,92.1,305.5,92.2L305.5,92.2z"></path> </g> </g> <path class="st1" d="M144.9,267.8c-1.9-5.8-3.7-11.7-5.5-17.5c-0.9-2.9-1.9-5.8-2.7-8.7c-0.8-3-1.3-6.2-2.1-9.3 c-0.4-1.7-5.2-0.5-4.7,1.3c0.8,3.2,1.6,6.4,2.4,9.6c-1,0.3-1.8,0.9-1.9,1.7c-0.2,2.3,0.5,4.7,1.5,7c-1.4,0.2-2.8,1.1-2.5,2 c2.5,8.1,7,15.4,10.8,22.9c3.8,7.6,7,15.6,11.2,23.1c0.8,1.5,5,0.6,4.7-1.3C154.6,287.7,148.4,278,144.9,267.8z"></path> <path class="st12" d="M160.7,209.7c-4.1-2.2-8.4-2.1-12.8-3.3c-3.6-0.9-6.9-2.1-10.6-2.6c-2.6-0.4-5.4-0.8-7.2-2.8 c-2.4-2.7-1.5-8-1.5-11.2c0-2.2,0.1-4.3,0.4-6.5c0.2-1.9,0.5-3.9,0-5.7c-0.4-1.6-5.2-0.3-4.7,1.3c0,0,0,0.1,0,0.1 c-0.2,0.1-0.4,0.1-0.5,0.2c-7.3,2.9-17.1,4-19.3,13c-0.8,3.5-0.4,7.5,0.9,10.8c1.4,3.7,4.3,5.7,7.9,7.1c4.3,1.6,9,2,13.4,2.9 c2.5,0.5,5,1.2,7.5,2c3,0.9,5.5,2.5,8.2,4.1c3.7,2.2,7.4,3.1,11.5,1.7c0.3,0,0.7,0.1,1.1,0c1.3-0.2,2.6-0.6,3.5-1.7 c1.2-1.5,2.6-1.9,4.1-3C165.2,213.8,163.1,211.1,160.7,209.7z"></path> <path class="st13" d="M203.3,286.6c-0.5-0.3-1-0.5-1.5-0.8c0,0,0,0-0.1,0c-6.7-3.5-13.5-6.8-20.4-10c-1.6-0.8-4.3-3.5-4.8-5.2 c-0.6-1.8-1-3.7-1.3-5.6c-0.6,0.1-1.3,0.3-1.9,0.5c-3.8,0.9-10.6,2.7-13.3,3.5c0.4,2.3,0.9,4.6,1.3,7c0.7,4.9-0.3,6.9,1.9,11.5 c2.1,4.4,6.6,5,10.9,4.9c3-0.1,5.8,0,8.7,0.4c3.3,0.5,6.6,1.2,9.9,1.7c0.5,0.4,2.1,0,2.4-0.1c1.5-0.4,4.9-2,6.6-4 c0.4-0.1,0.8-0.3,1.2-0.6C203.8,289,204.7,287.4,203.3,286.6z"></path> <g> <path class="st1" d="M165.6,267.4c0,0-4.9,3-4.2,9.1l-1.3-7.3L165.6,267.4z"></path> <g> <path class="st1" d="M165.4,267.2c-2,1.2-3.5,3.4-4.1,5.7c-0.3,1.2-0.4,2.4-0.3,3.7c0.2-0.1,0.4-0.1,0.6-0.2 c-0.4-2.4-0.9-4.9-1.3-7.3c-0.1,0.1-0.2,0.2-0.3,0.3c1.9-0.6,3.7-1.2,5.6-1.8C166,267.5,165.9,267,165.4,267.2 c-1.8,0.6-3.6,1.2-5.5,1.7c-0.1,0-0.3,0.2-0.3,0.3c0.4,2.4,0.9,4.9,1.3,7.3c0.1,0.3,0.7,0.1,0.6-0.2c-0.3-2.4,0.4-4.7,1.8-6.7 c0.4-0.6,1-1.1,1.5-1.6c0.2-0.1,0.3-0.3,0.5-0.4c0,0,0.3-0.2,0.2-0.1C166.1,267.4,165.7,267,165.4,267.2z"></path> </g> </g> <path class="st14" d="M156.3,256.3c0.6,3.6,2.6,12.9,2.6,12.9s9.6-2.6,14.4-3.8c7.3-1.8,14.7-3.3,22.1-4.9c0,0,0.1,0,0.1,0 c-0.4-0.7-0.8-1.4-1.1-2c-1.9-3.7-4.2-7.1-5.9-10.8c-2.9-6.3-5.8-12.7-8.4-19.2c-2.2-5.4-4.5-11-8.6-15.1c-3.2-3.2-7.7-5.1-12.2-4.3 c-5,0.9-7.6,4.8-8.8,9.4c-1.4,5.9,0.1,12.5,1.5,18.2c0.7,3.1,1.9,6.1,2.8,9.2C155.6,249.2,155.7,252.9,156.3,256.3z"></path> <path class="st3" d="M172.3,265.7c-5,1.2-13.5,3.5-13.5,3.5s-1.9-9.3-2.6-12.9c-0.6-3.5-0.7-7.1-1.7-10.5c-0.8-3.1-2-6.1-2.8-9.2 c-0.6-2.4-1.2-5-1.6-7.5c3-1.5,6.6-2.3,9.7-1c2.8,1.1,3.7,4.7,4.3,7.3c1,3.9,2.2,7.8,3.1,11.7C168.8,253.3,170.9,259.4,172.3,265.7z "></path> <g> <g> <path class="st1" d="M158.6,264.6c11.3-1,22-5.1,33.1-7.3c0.8-0.2,0.6-0.7-0.2-0.6c-11,2.3-21.5,6.3-32.7,7.3 C158.2,264,157.8,264.6,158.6,264.6L158.6,264.6z"></path> </g> </g> <g> <g> <path class="st1" d="M156,256.4c0.7,4.3,1.7,8.6,2.6,12.9c0,0.2,0.3,0.2,0.4,0.2c9.8-2.7,19.7-5,29.7-7.2c0.4-0.1,0.3-0.6-0.1-0.5 c-10,2.1-19.9,4.5-29.7,7.2c0.1,0.1,0.3,0.1,0.4,0.2c-0.9-4.3-1.8-8.6-2.6-12.9C156.6,255.9,155.9,256.1,156,256.4L156,256.4z"></path> </g> </g> <path class="st7" d="M184.2,292.9c2-0.8,3.5-2.7,3.8-4.9c0.3-2.4,0.6-5.8-1.3-7.6c-1.6-1.6,2.6-2.8,3.6-2.5c6,1.7,12.5,3.2,17.3,7.2 c3,2.5,8.6,10.1,2.7,12.8c-1.5,0.7-3,0.5-4.6,0.5c-1.9-0.1-3.8,0-5.6-0.1c-4.2-0.1-8.4-0.7-12.5-1c-8.6-0.8-15.5-1.4-24.2-1.4 c-0.9,0-2-1.1-1.8-2.2c0.3-1.3,2.2-1.4,3-1.4l9.5,0c3-0.1,5.8,0,8.7,0.4C183.3,292.7,183.8,292.8,184.2,292.9L184.2,292.9z"></path> <g> <g> <path class="st15" d="M198.7,281.4c-1.3-0.6-2.8-0.5-4.1-0.1c-1.3,0.4-2.7,1.1-3.1,2.5c-0.4,1-0.1,2.5,1.1,2.8 c1.1,0.3,2.5-0.2,3.5-0.7c1.2-0.6,2.5-1.7,2.9-3c-0.2,0-0.4,0.1-0.6,0.1c-0.1,1,0.1,2.1,0.4,3.1c0.3,1,0.9,2,1.7,2.7 c0.9,0.6,1.9,0.5,2.8,0.1c1-0.5,1.4-1.5,1.2-2.6c-0.2-1.2-1-2.5-2.1-3.1c-0.2-0.1-0.8,0.2-0.5,0.3c1.1,0.6,1.8,1.9,2,3.1 c0.2,1.3-0.8,2.7-2.2,2.3c-1.1-0.3-1.8-1.5-2.2-2.5c-0.4-1-0.7-2.2-0.5-3.3c0-0.3-0.6-0.1-0.6,0.1c-0.3,1-1.1,1.8-2,2.4 c-0.8,0.6-1.9,1.1-2.9,1.1c-1.1-0.1-1.5-1.1-1.4-2c0.1-1.2,1.1-2.1,2.2-2.5c1.2-0.5,2.8-0.7,4-0.1 C198.4,281.8,199,281.5,198.7,281.4L198.7,281.4z"></path> </g> </g> <g> <path class="st16" d="M147.8,218.3c-3.5-2.5-8-4.1-12.2-4.4c-4.5-0.3-9.1-0.8-13.6-1.3c-4.1-0.5-8.2-1.1-11.5-3.8 c-1.2-1-2-2.2-2.8-3.5c-0.3-0.5-1.6-2.9-1.4-3.1c1.2-1.5-1-1.7-2.1-1.7c-1.7,0.1-4.6,0.6-5.7,2.1c0,0,0,0,0,0.1c-2-0.3-3.9-1-5.8-2 c0.1-0.7,0.2-1.5,0.2-2.2c0.3-0.3,0.5-0.6,0.3-0.8c-0.2-0.2-0.3-0.5-0.3-0.8c-0.5-2-9.7,0.3-9.7,2.6c0,2-0.1,4-0.7,6 c-0.6,2-2,3.5-3.3,5.1c-2.7,3.2-3.4,6.6-3.1,10.8c0.7,8.5,6.6,16.7,14.4,20c7.6,3.2,16.6,4.1,24.8,3.7c3.4-0.2,6.6-0.9,9.9-1.7 c-0.8,1.2-1.6,2.4-2.4,3.6c-2.5,3.4-5.3,6.5-8.3,9.5c-2.6,2.5-5.9,4.6-7.7,7.8c-0.5,1,0.4,1.3,1.3,1.3c4.8,0.2,8.8,1.5,12.7,4.3 c2.3,1,4.5,2.2,6.7,3.3c3.4,1.8,10,4.5,11,8.6c2.3-0.5,3.1-3.2,3.3-4.5c0.9-5.1,2.4-10,4.8-14.7c2.4-4.7,5.4-9.1,7.4-14 C157.8,238.8,160,227.2,147.8,218.3z"></path> <g> <path class="st1" d="M148.3,218.1c-3.5-2.5-7.6-4-11.9-4.4c-5.2-0.4-10.3-0.9-15.5-1.5c-4.6-0.6-9.2-1.8-12-5.9 c-0.8-1.1-1.6-2.4-2.1-3.7c-0.2-0.6,0.2-0.7,0.2-1.3c0-0.5-0.5-0.7-0.9-0.9c-1.4-0.4-3-0.1-4.4,0.3c-1.3,0.3-3.1,0.8-3.9,2.1 c0.3-0.1,0.6-0.2,0.9-0.3c-1.1-0.2-2.2-0.4-3.3-0.8c-0.5-0.2-0.9-0.4-1.4-0.6c-0.9-0.4-1-0.9-0.8-1.8c0.1-1.1,0.6-1.4,0.1-2.5 c-0.1-0.3-0.2-0.4-0.5-0.6c-1.5-0.8-4.2,0-5.7,0.4c-1.4,0.4-4,1.2-4.5,2.8c-0.2,0.7,0,1.6-0.1,2.3c-0.1,1.3-0.2,2.6-0.6,3.8 c-0.6,2-2,3.5-3.3,5.1c-4.8,5.9-3.5,14.3,0,20.6c1.8,3.1,4.2,5.9,7.1,7.9c3.1,2.2,6.9,3.5,10.6,4.4c4.6,1.1,9.3,1.7,14,1.7 c5,0.1,9.7-0.7,14.6-1.8c-0.1,0-0.3,0-0.4-0.1c-2.9,4.5-6.3,8.6-10.1,12.3c-1.5,1.5-3.2,2.8-4.8,4.3c-0.7,0.6-1.4,1.3-2.1,2.1 c-0.5,0.6-1.5,1.6-1.6,2.5c-0.2,1.5,3.2,1.2,3.9,1.3c2.3,0.3,4.6,1,6.7,2c1,0.5,1.9,1,2.8,1.6c1.1,0.8,2.4,1.2,3.7,1.8 c1.9,1,3.8,2,5.7,3c3.3,1.6,7.9,3.7,9,7.6c0,0.1,0.5,0,0.5,0c1.7-0.4,2.8-1.5,3.3-3.2c0.8-2.2,1-4.6,1.6-6.9 c1.6-5.8,4.4-10.9,7.4-16c4.2-7.4,8.3-16.6,6.4-25.3C155.9,225.4,152.5,221.2,148.3,218.1c-0.2-0.2-1.1,0.3-1,0.3 c3.7,2.7,6.8,6.2,8.3,10.7c1.2,3.6,1.1,7.4,0.4,11.1c-0.8,4.2-2.4,8.4-4.4,12.2c-2.5,4.8-5.6,9.4-7.6,14.4c-1.1,2.8-2,5.7-2.6,8.7 c-0.4,2-0.6,5.4-3.1,6c0.2,0,0.4,0,0.5,0c-0.9-3.3-4.4-5.2-7.2-6.7c-1.5-0.8-3.1-1.6-4.6-2.4c-2.3-1.2-4.7-2.2-6.9-3.6 c-1.7-1.1-3.6-2-5.6-2.6c-2.1-0.7-4.2-0.7-6.4-1c-1.5-0.2-0.9-1.2-0.3-2.1c0.7-1,1.5-1.8,2.3-2.6c1.5-1.4,3.2-2.7,4.7-4.1 c4.1-3.9,7.8-8.3,10.8-13.1c0.1-0.1-0.4-0.1-0.4-0.1c-4.1,0.9-8,1.7-12.2,1.7c-3.8,0.1-7.5-0.2-11.3-0.8 c-6.7-1.1-13.5-3.2-18.4-8.3c-4.4-4.6-7.2-11-6.8-17.5c0.2-3.5,1.7-6.2,3.9-8.9c1-1.3,2-2.6,2.5-4.1c0.6-1.8,0.7-3.7,0.7-5.6 c0.1-2.3,3.5-3.1,5.4-3.4c0.8-0.1,2.3-0.4,3,0.2c0.5,0.4,0.6,1.1,0.5,1.6c0.2-1.7-0.7,2.7-0.3,0.8c-0.1,0.6-0.1,1.2-0.2,1.8 c0,0,0,0,0,0c1.8,1,3.7,1.7,5.8,2c0.2,0,0.8-0.1,0.9-0.3c1-1.5,3.5-1.9,5.1-1.9c0.5,0,1.6,0,1.9,0.5c0.3,0.4-0.2,0.8-0.3,1.2 c0,0.9,1,2.1,1.4,2.9c0.9,1.5,1.9,2.9,3.4,4c3,2.3,6.8,2.9,10.5,3.3c4.4,0.5,8.9,1,13.4,1.4c4.7,0.3,9.2,1.7,13,4.4 C147.5,218.6,148.4,218.2,148.3,218.1z"></path> </g> </g> <path class="st1" d="M139.6,281.7c-0.4-2.8-3.8-4.7-6-6c-0.2-0.1-0.3-0.2-0.5-0.3c-7-5.9-14.1-9.7-23.4-11.1 c-1.1-0.2-3.3-0.4-3.8,0.4c-0.8,0.5-1.3,1.3-1.1,2.4c0.3,2.3,4.1,4.5,5.7,5.9c7.5,6,15.9,10.9,25.8,10.8 C137.3,283.6,139.8,283.1,139.6,281.7z"></path> <g> <g> <path class="st1" d="M127.5,231.8c1.2,1.3,2.3,2.8,1.9,4.7c-0.3,1.4-1.2,2.6-2.1,3.7c-2.3,2.7-4.1,5.7-6.3,8.5 c-2.5,3.2-5.3,6.2-8.3,8.9c-1.3,1.2-2.8,2.3-4,3.5c-0.9,0.9-2.3,2.2-2.5,3.6c0,0.3,0.6,0.1,0.6-0.1c0.3-1.7,2.4-3.5,3.6-4.6 c1.4-1.2,2.8-2.4,4.2-3.6c2.9-2.8,5.7-5.9,8.1-9.1c1.2-1.6,2.2-3.3,3.4-4.9c0.9-1.2,1.9-2.2,2.8-3.4c0.7-1,1.3-2.2,1.3-3.4 c0-1.6-1-2.9-2.1-4.1C127.9,231.4,127.3,231.6,127.5,231.8L127.5,231.8z"></path> </g> </g> <g> <g> <path class="st1" d="M149.1,224.9c-1.9,1-2.5,3.8-2.7,5.7c-0.3,2.1-0.4,5.2,1.2,6.9c1.1,1.2,3.2,1.5,4.3,0.1 c1.2-1.5,1.4-3.9,1.5-5.7c0.1-2.1,0.1-4.4-0.3-6.4c-0.1-0.3-0.7-0.1-0.6,0.2c0.3,1.6,0.4,3.2,0.3,4.8c0,1.9-0.1,4.1-0.8,5.9 c-0.2,0.6-0.6,1.3-1.2,1.6c-0.7,0.3-1.5,0-2.1-0.4c-1.7-1.2-1.8-4.1-1.6-5.9c0.1-1.3,0.3-2.7,0.8-4c0.3-0.9,0.8-2,1.7-2.5 C149.8,225,149.5,224.7,149.1,224.9L149.1,224.9z"></path> </g> </g> <g> <g> <path class="st1" d="M89.4,210.2c1.3,2.9,2.2,6.3,1.5,9.4c-0.6,2.7-3.7,6.2-6.6,4.2c-1.4-1-1.9-2.8-2-4.4c0-0.2-0.7-0.1-0.6,0.2 c0.1,1.6,0.6,3.3,1.9,4.4c1,0.8,2.4,1.1,3.7,0.7c1.6-0.5,3-1.8,3.7-3.3c0.8-1.6,1-3.5,0.8-5.3c-0.2-2.1-0.8-4.1-1.6-6 C89.9,209.8,89.3,209.9,89.4,210.2L89.4,210.2z"></path> </g> </g> <g> <path class="st8" d="M136.4,277.4c-1.4,2.1-3,4-4.5,5.9c0,0-0.1,0.1-0.1,0.1c-0.8,1.7-1.4,3.5-2,5.3c-1.2,4.1-1.8,8.4-3,12.5 c-1,3.4-2.2,7.3-4.8,9.9c-2.9,2.9-7.6,4.7-11.7,3.3c-4.7-1.6-6.6-6-6.5-10.7c0.2-5.2,2.9-9,6.8-12.2c2-1.6,3.9-3.3,5.3-5.5 c1.5-2.3,2.6-4.7,3.5-7.2c0.1-0.2,0.2-0.5,0.2-0.7c1.2-3.2,2.2-6.6,3.3-9.8c3.5,1.8,6.8,4.1,10.1,6.9c0.2,0.1,0.3,0.2,0.5,0.3 C134.5,276.2,135.4,276.7,136.4,277.4z"></path> <g> <path class="st1" d="M136.1,277.3c-1,1.5-2.2,3-3.4,4.5c-0.4,0.5-1,1.1-1.3,1.7c-0.5,0.9-0.9,2.1-1.2,3.1 c-1.2,3.5-1.9,7.1-2.7,10.7c-1.5,6.4-3.3,13.9-10,16.7c-3.2,1.3-6.9,1.1-9.7-1c-2.3-1.8-3.4-4.7-3.6-7.6c-0.2-3,0.6-5.9,2.2-8.5 c1.8-2.8,4.4-4.7,6.8-6.9c6-5.5,7.6-14,10.2-21.4c-0.2,0.1-0.4,0.1-0.6,0.2c2.4,1.3,4.8,2.7,7,4.4c1.1,0.8,2.1,1.8,3.2,2.5 c1,0.7,2.1,1.3,3.1,2c0.3,0.2,0.9-0.2,0.6-0.4c-1-0.7-2-1.3-3-1.9c-1.2-0.8-2.2-1.8-3.4-2.6c-2.2-1.6-4.5-3.1-7-4.4 c-0.2-0.1-0.5-0.1-0.6,0.2c-2.6,7.5-4.3,16.1-10.5,21.5c-2.4,2.1-4.8,4-6.5,6.7c-1.6,2.6-2.4,5.7-2.2,8.8 c0.4,5.8,4.8,10.4,10.8,9.8c2.9-0.3,5.6-1.7,7.7-3.7c2.4-2.3,3.6-5.5,4.6-8.6c1.3-4.2,2-8.5,3.1-12.8c0.6-2.3,1.2-5.1,2.7-7.1 c1.4-1.9,2.9-3.6,4.2-5.6C136.9,277.1,136.2,277,136.1,277.3z"></path> </g> </g> <g> <path class="st7" d="M110.6,291.6c2-1.6,3.9-3.3,5.3-5.5c1.5-2.3,2.6-4.7,3.5-7.2c0.1-0.2,0.1-0.3,0.2-0.5 c-7.4,1.3-12.7,7.7-15.9,14.2c-2.8,5.7-3.3,11.9-2.7,18.2c0.5,5.1,2.3,11.7,8.3,12.1c3.7,0.2,7.3-1.9,10.1-4.1 c3-2.3,5.8-5.5,6.8-9.3c-9.8-9.8-19.9-13.4-19.9-13.4C107.5,294.5,109,293,110.6,291.6z"></path> <g> <path class="st1" d="M110.9,291.8c2-1.7,4-3.4,5.4-5.6c1.5-2.4,2.7-5,3.7-7.7c0.1-0.3-0.2-0.3-0.4-0.3 c-11.1,2.1-18.2,14.6-19,25.1c-0.4,4.8-0.2,10.5,1.9,14.9c2.2,4.4,6.6,5.8,11.1,4.2c3-1,5.7-3,8-5.1c2.3-2.2,4.2-4.8,5-7.8 c0,0,0-0.1,0-0.1c-4.1-4-8.7-7.6-13.7-10.4c-2-1.2-4.2-2.3-6.4-3.1c0,0.1,0.1,0.2,0.1,0.3C107.9,294.6,109.3,293.1,110.9,291.8 c0.4-0.3-0.2-0.6-0.5-0.3c-1.6,1.4-3.1,2.8-4.3,4.5c-0.1,0.1-0.1,0.3,0.1,0.3c3.4,1.2,6.6,3.2,9.7,5.1c3.3,2.2,6.4,4.6,9.2,7.4 c0.5,0.5,0.7,0.8,0.6,1.4c-0.1,0.5-0.4,1-0.6,1.5c-0.4,1-1,1.9-1.6,2.7c-1.1,1.5-2.5,2.8-3.9,4c-3.1,2.5-7.4,5.2-11.6,4 c-2.9-0.8-4.6-3.4-5.5-6.1c-1-3-1.3-6.2-1.3-9.3c-0.1-4.1,0.4-8.2,1.9-12c2.8-7.3,8.6-14.7,16.6-16.3c-0.1-0.1-0.3-0.2-0.4-0.3 c-0.9,2.4-1.9,4.8-3.2,6.9c-1.5,2.4-3.5,4.3-5.7,6.1C110,291.8,110.6,292,110.9,291.8z"></path> </g> </g> <g> <path class="st1" d="M106.4,296.1c0,0,4.6-13,13.2-17.6c0,0-0.8,6-6.1,10.6c0,0-3,2.5-4.1,3.6C108.3,293.9,106.4,296.1,106.4,296.1 "></path> <g> <path class="st1" d="M106.7,296.2c1.7-4.8,4.4-9.5,7.8-13.3c1.5-1.7,3.2-3.2,5.2-4.2c-0.2-0.1-0.3-0.1-0.5-0.2 c-0.5,3.6-2.6,7.1-5.1,9.6c-1.4,1.4-2.9,2.5-4.3,3.8c-1.4,1.2-2.6,2.7-3.7,4.1C105.9,296.4,106.5,296.4,106.7,296.2 c1.2-1.5,2.5-3,4-4.3c1.5-1.3,3-2.5,4.4-3.9c2.4-2.5,4.4-6,4.8-9.5c0-0.2-0.3-0.2-0.5-0.2c-6.1,3.3-10,9.9-12.7,16.1 c-0.2,0.6-0.5,1.2-0.7,1.7C106,296.4,106.6,296.4,106.7,296.2L106.7,296.2z"></path> </g> </g> <g> <g> <path class="st1" d="M116.8,301.4c-2.3-1.6-4.9-2.9-7.4-4.2c-0.7-0.4-1.8-0.6-2.5-1.1c-0.2-0.1-0.1,0-0.1,0c0-0.1,0.1-0.3,0.1-0.4 c0.6-1.3,1.1-2.7,1.8-4c1.1-2.3,2.5-4.5,4-6.6c2-2.6,4.3-5,7.2-6.6c-0.2,0-0.3,0-0.5,0c-1,3.6-2.9,7.3-5.5,10 c-1.2,1.3-2.7,2.3-4,3.5c-1.3,1.2-2.5,2.6-3.7,4c-0.1,0.2,0.5,0.1,0.6,0c1.2-1.4,2.4-2.9,3.8-4.1c1.4-1.2,2.9-2.3,4.1-3.7 c2.5-2.7,4.4-6.3,5.3-9.9c0-0.2-0.4,0-0.5,0c-4.2,2.3-7.3,6.2-9.8,10.3c-1.4,2.3-2.7,4.8-3.6,7.4c0,0,0,0.1,0.1,0.1 c3.4,1.5,6.9,3.2,10,5.4C116.3,301.7,116.9,301.5,116.8,301.4L116.8,301.4z"></path> </g> </g> <g> <g> <path class="st1" d="M139.1,279.6c-1.2-1.6-2.9-2.7-4.6-3.8c-1.8-1.1-3.4-2.6-5.2-3.9c-3.4-2.5-7.2-4.5-11.2-5.9 c-2.1-0.7-4.3-1.3-6.5-1.7c-1.5-0.3-3.2-0.7-4.7-0.4c-1.1,0.2-2.2,1.1-2.4,2.3c-0.3,1.6,1,3,2.1,4c1.6,1.5,3.5,2.7,5.3,4.1 c2.3,1.7,4.7,3.4,7.2,4.8c0.2,0.1,0.8-0.2,0.5-0.3c-3.6-2.1-6.8-4.6-10.2-7.1c-1.3-0.9-2.7-2-3.7-3.3c-1.3-1.9-0.4-4.2,2.1-4.1 c3.7,0,7.7,1.3,11.1,2.6c3.4,1.3,6.6,3.1,9.5,5.2c1.7,1.2,3.3,2.7,5.1,3.8c1.8,1.1,3.7,2.2,5,4 C138.6,280.1,139.3,279.8,139.1,279.6L139.1,279.6z"></path> </g> </g> <g> <g> <path class="st1" d="M104.6,245c6.7,1.1,14.1,0.6,20.5-1.4c0.4-0.1,0.3-0.4-0.1-0.3c-6.3,2-13.5,2.5-20.1,1.4 C104.8,244.6,104.2,244.9,104.6,245L104.6,245z"></path> </g> </g> <line class="st17" x1="33.6" y1="300.6" x2="101" y2="300.6"></line> <path class="st18" d="M119.6,278.5c-7.4,1.3-12.7,7.7-15.9,14.2c-2.8,5.7-3.3,11.9-2.7,18.2c0.5,5.1,2.3,11.7,8.3,12.1"></path> <polygon class="st1" points="136.1,193.8 142.8,202.4 124.1,202.3 "></polygon> <path class="st8" d="M144.3,201.4c0,0-1.9-1.3-2.6-2.9c-0.7-1.4-1.8-3.6-2.9-5c-2-2.4-4.5-5.1-7.9-4.5c-3.1,0.6-5.2,3.1-7.6,4.9 c-1.7,1.2-3.5,2.2-5.6,2.4c-0.5,0.1-1.6,0-2.5-0.2c0.9,3,0.6,6.2-1.5,9.2c-0.1,0.1-0.2,0.2-0.3,0.3c1.5-0.5,3-1.1,4.5-1.8 c1.7-0.8,3.3-1.4,5.1-1.4c1.9,0,3.7,0,5.5-0.4c3-0.7,5.9-3.4,6.6-6.2c0.9,1.1,1.7,2.2,2.6,3.2c1.3,1.5,3.7,3.4,5,3.4 C145.1,202.4,144.3,201.4,144.3,201.4z"></path> <g> <path class="st19" d="M123.1,202.3c-1,0-1.8,1.2-1.8,2.7c0,1.5,0.8,2.7,1.8,2.7h56.2c1,0,1.8-1.2,1.8-2.7c0-1.5-0.8-2.7-1.8-2.7 H123.1z"></path> <g> <path class="st1" d="M123.7,201.7c-2.1,0.2-3.8,1.3-3.8,3.6c-0.1,1.7,0.8,3.1,2.6,3.2c0.7,0,1.4,0,2.1,0c4.1,0,8.2,0,12.3,0 c11.2,0,22.5,0,33.7,0c2.7,0,5.4,0.1,8.1,0c1,0,2-0.3,2.8-1c1.4-1.2,1.7-4,0.1-5.3c-0.8-0.6-1.9-0.5-2.9-0.5c-9.5,0-18.9,0-28.4,0 c-8.7,0-17.4-0.1-26.2,0C124,201.7,123.8,201.7,123.7,201.7c-0.5,0-1.6,0.2-1.9,0.7c-0.3,0.5,0.3,0.6,0.7,0.6c6.7,0,13.5,0,20.2,0 c10.2,0,20.5,0,30.7,0c1.4,0,2.7,0,4.1,0c1.2,0,1.6-0.1,2,1.5c0.2,0.6,0.2,1.3,0,2c-0.1,0.2-0.2,0.4-0.3,0.6 c-0.3,0.8-0.6-0.4,0.7,0.1c0,0-0.1,0-0.1,0c-0.3,0-0.6,0-0.8,0c-1.2,0-2.5,0-3.7,0c-10.1,0-20.2,0-30.4,0c-4.8,0-9.7,0-14.5,0 c-1.6,0-3.1,0-4.7,0c-0.5,0-1.5,0.2-1.9,0c-0.3-0.1-0.7-1-0.8-1.3c-0.2-0.6-0.2-1.3-0.1-2c0.1-0.2,0.1-0.5,0.2-0.7 c0.4-0.8,0.7-0.4-0.6-0.2c0.5-0.1,1.6-0.2,1.9-0.7C124.7,201.8,124.2,201.6,123.7,201.7z"></path> </g> </g> <g> <path class="st19" d="M190.9,171.6c-5.4,0-14.5,0.1-19.3,0.1c-4.8,0-5.4,2.1-8.5,8c-3.2,5.9-11.6,22.8-11.6,22.8l27.8-0.1 c0,0,12.1-19.5,15.5-25C198.2,171.8,196.3,171.5,190.9,171.6z"></path> <g> <path class="st1" d="M191.1,171.3c-5.2,0-10.4,0-15.5,0.1c-3.4,0-7.2-0.5-9.5,2.5c-1.3,1.7-2.3,3.8-3.3,5.7 c-0.8,1.5-1.6,3-2.3,4.5c-1.9,3.7-3.8,7.5-5.7,11.2c-1.2,2.4-2.4,4.8-3.6,7.2c-0.1,0.1,0.1,0.3,0.2,0.3c8.7,0,17.4-0.1,26.1-0.1 c0.6,0,1.7,0.2,2.2-0.3c0.3-0.3,0.6-0.9,0.8-1.3c0.6-0.9,1.1-1.8,1.7-2.7c3.4-5.4,6.7-10.9,10.1-16.3c0.8-1.2,1.5-2.4,2.2-3.7 c0.8-1.3,1.8-2.7,2.2-4.3C197.5,170.9,192.9,171.3,191.1,171.3c-0.3,0-0.8,0.5-0.3,0.5c1.4,0,3.3-0.2,4.6,0.4 c1.3,0.7,0.6,2.2,0.1,3.2c-1.1,2.4-2.7,4.6-4.1,6.9c-3.3,5.3-6.6,10.6-9.9,16c-0.8,1.3-1.7,2.7-2.5,4c0.2-0.1,0.3-0.1,0.5-0.2 c-8.1,0-16.2,0.1-24.3,0.1c-1.2,0-2.3,0-3.5,0c0.1,0.1,0.1,0.2,0.2,0.3c2.6-5.3,5.3-10.6,8-15.9c1.7-3.4,3.4-6.7,5.2-10 c0.8-1.5,1.7-3.3,3.4-4.1c1.8-0.9,4.1-0.6,6-0.6c5.5,0,10.9-0.1,16.4-0.1C191.1,171.8,191.6,171.3,191.1,171.3z"></path> </g> </g> <path class="st4" d="M178.1,188.2c-0.3-0.7-1.4-0.9-2.1-0.8c-2.3,0.2-4,2.2-3.7,4.4c0.1,0.7,1,0.9,1.5,1c2.2,0.3,4.7-1.2,4.8-3.5 C178.7,188.8,178.5,188.5,178.1,188.2z"></path> <path class="st20" d="M154.3,202.3c-0.5,0-2.2,0-2.7,0c-1.5,0-2.7,1.2-2.7,2.7c0,1.5,1.2,2.7,2.7,2.7c0.5,0,2.2,0,2.7,0 c1.5,0,2.7-1.2,2.7-2.7C157,203.6,155.8,202.3,154.3,202.3z"></path> <g> <g> <path class="st10" d="M166.7,176.8c-3.3,6.7-6.7,13.4-10,20c-0.5,0.9-0.9,1.9-1.4,2.8c-0.1,0.1,0.1,0.2,0.2,0.2c2.5,0,5,0,7.5,0 c0.3,0,0.7-0.4,0.2-0.4c-2.5,0-5,0-7.5,0c0.1,0.1,0.1,0.2,0.2,0.2c3.3-6.7,6.7-13.4,10-20c0.5-0.9,0.9-1.9,1.4-2.8 C167.5,176.6,166.8,176.6,166.7,176.8L166.7,176.8z"></path> </g> </g> <g> <g> <path class="st1" d="M134.9,195.7c-0.7,2.2-2.4,4.1-4.4,5.2c-2.3,1.3-4.9,1.2-7.5,1.2c-0.4,0-0.5,0.5,0,0.5c8.3,0,16.6,0,24.9,0 c1.2,0,2.4,0,3.6,0c0.1,0,0.3-0.1,0.3-0.2c1.8-3.5,3.6-7.1,5.5-10.6c0.2-0.3-0.5-0.4-0.6-0.1c-1.3,2.6-2.7,5.2-4,7.8 c-0.4,0.8-1.3,1.9-1.5,2.8c0.1-0.4,0.5-0.1,0-0.2c-0.4-0.1-0.8,0-1.2,0c-6.8,0-13.6,0-20.4,0c-2.2,0-4.3,0-6.5,0 c0,0.2,0,0.3,0,0.5c2.8-0.1,5.7,0,8.1-1.5c2-1.2,3.7-3.1,4.4-5.3C135.7,195.4,135,195.4,134.9,195.7L134.9,195.7z"></path> </g> </g> <g> <path class="st21" d="M144.2,161.3c-5.4-14.3-19.3-28-35.8-23.9c-1.1,0.3-1.7,0.9-1.8,1.5c-6.6,3.6-13.7,1.9-20.9,1.8 c-6.4-0.1-13.6,1.9-17.2,7.6c-0.9,1.5,1.5,1.3,2.2,1.1c0,0,0,0,0,0c0.1,0.1,0.2,0.1,0.4,0.1c4.8,1,6.9,5,8.4,9.3 c1.8,5.2,3.5,10.3,6.1,15.2c2.6,5,5.8,10.6,10.6,13.8c2,1.4,4.4,2.3,6.7,2.6c3.5,0.9,7.9,0.2,11-0.3c4.4-0.8,9.3-2.2,13-4.6 c1.8-1.1,3.3-3.1,4.4-5.2c0.4,1.2,1,2.2,2,3.1c2.7,2.3,6.3,2.1,9-0.1C148.9,178.2,146.7,168,144.2,161.3z"></path> </g> <path class="st14" d="M143,182.6c-2.7,2.2-6.3,2.4-9,0.1c-1-0.8-1.6-1.9-2-3.1c-0.6,0.6-1.7,0.9-2.3,1.5c0.7-3.6,2.8-7,6.2-7 c6.6,0,8.2-2.4,11.2-5.5C147.9,173.8,147.3,179.3,143,182.6z"></path> <path class="st14" d="M143.8,160.2c-2.2,4.5-9.5,6.3-9.5,6.3c-0.2-2-1.6-7-1.6-7c5-1,6.2-8.1,6.2-8.1 C140.9,154.1,142.6,157.1,143.8,160.2z"></path> <path class="st14" d="M131.8,156.7c-0.6-8.1,0.4-13.3-2.3-15.4l0,0c0,0,0,0,0,0c-0.1,0-0.1-0.1-0.1-0.1c-0.2-0.1-0.4-0.2-0.6-0.4 c-0.1-0.1-0.3-0.2-0.4-0.2c-0.1-0.1-0.2-0.1-0.3-0.1c-0.1-0.1-0.3-0.2-0.4-0.3c-0.2-0.1-0.5-0.3-0.7-0.4c-0.2-0.1-0.5-0.2-0.7-0.4 c-0.2-0.1-0.5-0.2-0.7-0.3c-0.1,0-0.2-0.1-0.3-0.1c-0.2-0.1-0.4-0.2-0.7-0.3c0,0-0.1,0-0.1,0c-0.2-0.1-0.4-0.2-0.7-0.3 c-0.3-0.1-0.5-0.2-0.8-0.3c-0.1-0.1-0.3-0.1-0.4-0.1c-0.3-0.1-0.5-0.2-0.8-0.2c-0.2-0.1-0.5-0.1-0.8-0.2c-0.2-0.1-0.4-0.1-0.6-0.2 c-0.1,0-0.3-0.1-0.4-0.1c-0.3-0.1-0.5-0.1-0.8-0.2c-0.2,0-0.5-0.1-0.7-0.1c-0.1,0-0.1,0-0.2,0c-0.3,0-0.5-0.1-0.8-0.1c0,0,0,0-0.1,0 c-0.3,0-0.5-0.1-0.8-0.1c-0.1,0-0.2,0-0.3,0c-0.3,0-0.6,0-0.8,0c0.6,0.1,2.9,0.5,4,2.5c1.2,2.2,4.2,9.3,7.4,23.3 c3.2,14-1.3,23.7-1.3,23.7c0.2-0.1,0.4-0.3,0.6-0.4c0.2-0.1,0.3-0.2,0.5-0.3c1.8-1.2,0.7-0.4,2.2-2c1.4-1.4,1.6-3.3,2.5-5.1l1.9-5.2 C135.2,162.9,132.3,162.7,131.8,156.7z M104.8,153c0,0-3.2-0.6-0.5,6.5c2.7,7.1,6.9,23.2,6.9,31.6c0,0,5.3-0.8,7.7-1.8 c0.7-5,0.9-19.8-4.6-31.6C108.9,145.7,104.8,153,104.8,153z"></path> <path class="st14" d="M76.4,141.9c-2.9,1.2-5.4,3.1-7.2,5.8c-0.9,1.5,1.5,1.3,2.2,1.1h0c0.1,0.1,0.2,0.1,0.4,0.1 c4.8,1,6.9,5,8.4,9.3c1.8,5.2,3.5,10.3,6.1,15.2c2.6,5,5.8,10.6,10.6,13.8c0.6,0.4,1.2,0.8,1.9,1.1l0.8-1.1c0,0,0.5-19.6-7.1-33.4 C88.1,145.9,83.4,142.4,76.4,141.9z"></path> <g> <path class="st16" d="M118.1,142c-3.1-6.6-9.4-7.2-15.7-7c-3-0.7-6.3,0.2-9.2,1c-2.1,0.5-4.4,0.9-6.5,1.7c-4.1,0.8-12,5-12.1,5.1 c2.6-0.7,5.9-0.5,8.2-0.1c4.5,0.8,8.3,3.3,11.8,6c3.4,2.6,6.1,5.5,8.8,8.8c1.6,1.9,3.1,3.8,4.9,5.6c1.3,0.7,3.6-0.5,4-1.7 C113.4,157.8,121.3,149,118.1,142z"></path> </g> <g> <g> <path class="st9" d="M65,142.7c-3.9,1.2-6.3,5.5-8,9c-2.1,4.3-3.6,8.9-4.5,13.5c-2.7,14,0,28,5.5,41c3,7,6.7,13.6,11,19.9 c0.1,0.2,0.8,0,0.6-0.3C62.1,215,56.4,203,53.4,190.2c-2.7-11.6-1.9-24.2,2.6-35.2c1-2.5,2.2-4.9,3.7-7.1c1.3-1.9,3-4,5.3-4.8 C65.5,143,65.4,142.6,65,142.7L65,142.7z"></path> </g> </g> <g> <g> <path class="st1" d="M68.8,185.5c-4.5,2.6-9,6.7-8,12.4c0.5,3.1,2.4,6,4.1,8.5c1.9,2.9,4.1,5.5,6.5,8c2.5,2.6,5.1,5,7.9,7.2 c0.2,0.2,0.8-0.1,0.5-0.3c-6.1-4.8-11.9-10.7-15.8-17.5c-1.9-3.3-3.6-7.1-2.1-10.9c1.3-3.2,4.3-5.5,7.3-7.2 C69.5,185.6,69,185.4,68.8,185.5L68.8,185.5z"></path> </g> </g> <g> <g> <path class="st1" d="M79.4,218.2c-3.8-3-7.2-6.7-10.1-10.6c-2.9-3.8-6.4-9.2-5.3-14.3c0.6-3.1,3.2-5,6-6c0.4-0.2,0-0.3-0.2-0.2 c-2.3,0.9-4.6,2.3-5.8,4.6c-1.1,2.1-0.9,4.5-0.3,6.7c1.5,5.6,5.5,10.5,9.4,14.7c1.8,1.9,3.7,3.8,5.8,5.5 C79,218.6,79.5,218.3,79.4,218.2L79.4,218.2z"></path> </g> </g> <path class="st21" d="M69.3,147.8c-0.4,0.2-0.8,0.5-1.1,0.9c-7.4,9.2-6.2,21.6-3.1,32.3c1.6,5.5,3.7,10.8,7.4,15.3 c3.7,4.4,9.1,7.7,14.5,9.5c1.4,0.4,2.7,0.5,4.2,0.5c1.3,0,1.9,1.1,2.7,2c1.8,2.1,5.4,1.1,7.6,0.5c-0.5,0.1,0.7,0,0.8,0 c0.5,0.1,0.9,0.1,1.4,0.2c1.2,0.1,2.4,0.1,3.5-0.1c2.4-0.5,5-1.3,6.6-3.4c3.5-4.7,2.2-10.1-1.5-14.3c-1.8-2.1-4.3-3.7-7-4.4 c-2.4-0.6-5.2,0.1-7.7,1.1l0,0c-0.2-0.1-0.4-0.3-0.6-0.4c-4.8-3.2-8-8.8-10.6-13.8c-2.6-4.9-4.3-10-6.1-15.2 c-1.5-4.2-3.6-8.3-8.4-9.3c-0.1,0-0.3-0.1-0.4-0.1c0,0,0,0,0,0C70.7,149,68.3,149.2,69.3,147.8L69.3,147.8z"></path> <g> <path class="st14" d="M86.7,174.1c-0.1-0.2-0.2-0.4-0.4-0.7c-1.1-2.2-2.1-4.4-3-6.6l0,0c-3.9-3.9-16.8-13.6-20.6,1 c0.2,4.4,1.1,8.9,2.4,13.1c0.2,0.7,0.4,1.3,0.6,2C68.7,173.4,74.5,172.8,86.7,174.1z"></path> <path class="st14" d="M90.7,180.9L90.7,180.9c-5.8,0-17.3-0.1-18.6,14.8v0c0.1,0.2,0.3,0.4,0.4,0.5c2.7,3.2,6.4,5.9,10.3,7.8 c0-0.1,0-0.3,0.1-0.4c0.8-6.1,8.1-15.1,11.4-18.5C93,183.9,91.8,182.4,90.7,180.9z"></path> <path class="st14" d="M98.2,188l-0.6-0.4c0,0,2.4,6.1-6.4,18.5c0.2,0,0.4,0,0.6,0.1c0,0,0,0,0,0c0.3,0.1,0.5,0.2,0.7,0.4 c0,0,0,0,0,0c1.8,1.1,3,2.3,5.7-0.4C101.2,203.2,108.1,186.4,98.2,188z"></path> </g> <g> <g> <path class="st1" d="M98.1,188.2c9.2-1.3,3,13.5,0.5,17c-0.7,1-1.8,2.2-3,2.4c-1.3,0.2-2.6-1-3.6-1.6c-0.1,0.1-0.3,0.2-0.4,0.3 c2.3,0.5,6.2,1,7.7-1.2c0.2-0.2-0.5-0.2-0.6,0c-1.3,1.9-4.8,1.3-6.7,0.9c-0.1,0-0.7,0.2-0.4,0.3c1.1,0.5,2.1,1.5,3.3,1.6 c1.3,0.2,2.4-0.6,3.3-1.5c1.3-1.2,2.2-2.9,2.9-4.5c1-2.1,1.8-4.2,2.2-6.5c0.4-1.8,0.7-4-0.1-5.7c-0.9-2-3-2.3-5-2 C97.9,187.8,97.7,188.2,98.1,188.2L98.1,188.2z"></path> </g> </g> <g> <path class="st1" d="M99.2,204.8c-0.4,0.6-0.7,1-1.1,1.4c-3,3-4.1,1.1-6.4,0c0,0,5.8,1.3,7.2-1.1"></path> <g> <path class="st1" d="M98.9,204.8c-0.6,0.8-1.2,1.6-2,2.2c-0.5,0.4-1.1,0.7-1.7,0.6c-0.5-0.1-1-0.3-1.5-0.6 c-0.5-0.3-1.1-0.7-1.6-0.9c-0.1,0.1-0.3,0.2-0.4,0.4c0.7,0.2,1.5,0.3,2.2,0.3c1.3,0.1,2.7,0.1,3.9-0.4c0.6-0.2,1.2-0.6,1.6-1.2 c0.2-0.3-0.5-0.2-0.6,0c-0.8,1.2-2.6,1.3-3.9,1.2c-0.9,0-1.9-0.1-2.8-0.3c-0.2,0-0.7,0.2-0.4,0.4c1.2,0.6,2.3,1.6,3.7,1.6 c1.9,0,3.4-1.7,4.3-3.2C99.7,204.6,99,204.6,98.9,204.8L98.9,204.8z"></path> </g> </g> <g> <g> <path class="st9" d="M82.7,199c0.4,0.4,0.9,0.6,1.3,0.8c0.6,0.2,1.3,0.4,2,0.3c0.6-0.1,1.3-0.4,1.6-0.9c0.4-0.6,0.5-1.5,0.3-2.2 c-0.3-1.2-1.3-2.2-2.4-2.8c-1-0.5-2.3-0.9-3.4-0.5c-0.5,0.2-1,0.5-1.2,1.1c-0.2,0.7,0,1.5,0.3,2.2c0.1,0.2,0.7,0,0.6-0.2 c-0.3-0.8-0.7-2.2,0.2-2.7c0.1-0.1,0.3-0.1,0.5-0.1c0.2,0,0.4,0,0.6,0c0.5,0,1,0.2,1.5,0.4c1,0.4,1.9,1.2,2.4,2.2 c0.4,0.9,0.4,2.7-0.7,3.1c-0.6,0.2-1.2,0-1.7-0.2c-0.5-0.2-1-0.4-1.3-0.7C83.1,198.6,82.5,198.8,82.7,199L82.7,199z"></path> </g> </g> <g> <g> <path class="st1" d="M152.7,202.3c-1.4,0.1-2.8,0.7-3.4,2c-0.5,1-0.3,2.2,0.5,3c0.6,0.5,1.4,0.7,2.2,0.7c0.1,0,0.4,0,0.4-0.2 c0.1-0.1-0.1-0.2-0.2-0.2c-1.1,0-2.2-0.5-2.5-1.6c-0.3-1,0.1-2,0.9-2.6c0.5-0.4,1.1-0.6,1.8-0.6c0.1,0,0.4,0,0.4-0.2 C153,202.3,152.9,202.3,152.7,202.3L152.7,202.3z"></path> </g> </g> <g> <g> <path class="st1" d="M114.8,190.3c3.8-0.7,7.6-1.5,10.9-3.7c2.9-1.9,5.2-4.6,6.6-7.8c1.4-3.2,1.9-6.7,1.9-10.2 c0-1.9-0.2-3.7-0.5-5.6c-0.3-2.1-1-4.1-1.2-6.2c-0.1-1.1-0.4-4.7,1.4-4.8c0.3,0,0.4-0.4,0-0.4c-0.8,0-1.4,0.8-1.6,1.4 c-1.2,2.8,0.3,6.5,0.8,9.3c1.3,7.5,0.9,16-4.8,21.6c-3.7,3.7-8.4,4.9-13.5,5.8C114.4,190.1,114.5,190.4,114.8,190.3L114.8,190.3z"></path> </g> </g> <g> <g> <path class="st1" d="M64.8,181c1.8,6.2,4.4,12.5,9.1,17.1c2.3,2.2,4.9,4.1,7.7,5.5c2.7,1.4,5.5,2.6,8.6,2.6c0.9,0,1.7,0,2.3,0.7 c0.5,0.5,0.8,1,1.2,1.5c0.7,0.7,1.7,1,2.8,1c1.1,0.1,2.1-0.1,3.2-0.3c0.5-0.1,1.1-0.4,1.6-0.4c0.6-0.1,1.3,0.1,1.9,0.2 c2.6,0.3,5.3-0.2,7.7-1.3c0.5-0.2,0.9-0.5,1.4-0.8c0.5-0.4,1-1,1.6-1.3c1.5-0.7,3.1-1.2,4.6-1.9c2.1-1,4.1-1.1,6.4-1.2 c1.6-0.1,3.2-0.2,4.6-0.7c2.8-1,5.2-3.3,6.1-6.1c0.1-0.2-0.6-0.1-0.6,0.1c-1,3.2-3.9,5.6-7.2,6.1c-2.8,0.5-5.6,0-8.4,1.1 c-1.4,0.5-2.6,1.2-4,1.8c-0.6,0.3-1.5,0.4-2.1,0.7c-0.4,0.3-0.7,0.7-1.1,1c-1.2,1-2.7,1.5-4.2,1.8c-1.9,0.5-3.6,0.3-5.6,0.1 c-2-0.2-3.8,0.9-5.9,0.7c-1.4-0.2-2.1-0.9-3-1.9c-0.6-0.8-1.2-1.2-2.2-1.3c-1.7-0.1-3.2-0.1-4.8-0.7c-1.3-0.5-2.6-1-3.8-1.6 c-2.7-1.4-5.3-3.1-7.6-5.2c-5.1-4.7-7.8-11.1-9.7-17.6C65.4,180.6,64.7,180.8,64.8,181L64.8,181z"></path> </g> </g> <g> <g> <path class="st1" d="M100.6,205c0.6,2.3,3.8,1.4,5.4,0.9c1.4-0.4,2.7-1,4-1.5c1-0.4,2.2-1,3.3-0.9c0.1,0,0.3,0,0.4-0.1 c0,0,0.2-0.1,0.1-0.1c-0.9-0.1-1.9,0.3-2.7,0.5c-1.3,0.4-2.6,1-3.8,1.4c-1.6,0.6-5.3,2.1-6-0.4C101.2,204.7,100.6,204.9,100.6,205 L100.6,205z"></path> </g> </g> <g> <g> <path class="st1" d="M114.7,200.7c-3.6-0.3-7.3,0.6-10.8-0.4c-0.2-0.1-0.8,0.3-0.4,0.4c3.6,1,7.3,0.1,11,0.4 C114.8,201.2,115.2,200.8,114.7,200.7L114.7,200.7z"></path> </g> </g> <g> <g> <path class="st1" d="M100.1,187.1c3.1-0.9,6.2-0.8,8.9,1.2c1.3,0.9,2.3,2.2,3.3,3.4c0.5,0.7,1,1.4,1.6,2.1c0.6,0.7,1,1.3,1,2.3 c0,0.2,0.6,0.1,0.6-0.2c0-0.9-0.4-1.6-1-2.3c-0.6-0.8-1.2-1.6-1.8-2.3c-1-1.3-2.2-2.5-3.5-3.5c-2.8-1.9-6-1.9-9.2-1.1 C99.6,186.8,99.7,187.2,100.1,187.1L100.1,187.1z"></path> </g> </g> <g> <g> <path class="st1" d="M115.5,195.8c-1.5-1.8-3.7-3.3-5.9-4.1c-1.5-0.6-4.1-1.3-5.1,0.5c-0.1,0.1,0.5,0.1,0.6-0.1 c1-1.6,3.7-0.3,4.9,0.3c1.8,0.9,3.7,2.1,4.9,3.7C115,196.2,115.6,196,115.5,195.8L115.5,195.8z"></path> </g> </g> <g> <g> <path class="st1" d="M97.2,187.1c-3.8-2.6-6.5-6.5-8.8-10.5c-2.5-4.4-4.5-9-6.3-13.8c-0.1-0.2-0.7,0-0.6,0.2 c1.8,4.9,3.8,9.6,6.5,14.2c2.2,3.9,4.9,7.6,8.6,10.2C96.7,187.4,97.3,187.2,97.2,187.1L97.2,187.1z"></path> </g> </g> <g> <g> <path class="st9" d="M113.7,309.3c0.5-0.8,0.7-1.8,0.7-2.7c0.1-0.9,0.1-2.1-0.7-2.7c-0.6-0.5-1.8-0.5-2.4,0 c-0.8,0.5-0.7,1.6-0.5,2.5c0.2,1,0.7,2.3,1.7,2.9c0.2-0.1,0.4-0.1,0.6-0.2c-1.6-0.8-4.4-0.4-5.4,1.2c-0.5,0.9-0.4,2.2,0.4,2.9 c0.7,0.6,1.7,0.4,2.5,0.1c1.1-0.4,2-1.3,2.4-2.4c0-0.1-0.6,0-0.6,0.1c-0.7,1.3-0.6,4,0.9,4.7c0.7,0.4,1.8,0.1,2.4-0.3 c0.8-0.5,1-1.5,0.8-2.4c-0.2-1.1-0.9-2.2-2-2.6c-0.2,0.1-0.4,0.2-0.6,0.2c0.8,0.3,1.8,0.3,2.7,0.3c1,0,2.1-0.2,2.9-0.7 c0.8-0.5,0.8-1.4,0.2-2.1c-0.7-0.9-2.1-0.7-3-0.3c-1.1,0.5-2.5,1.4-2.9,2.6c0,0.1,0.6,0,0.6-0.1c0.3-1.2,1.7-2.1,2.8-2.5 c0.6-0.2,1.3-0.2,1.8,0.3c0.3,0.3,0.6,0.9,0.5,1.4c-0.2,0.9-1.6,1-2.4,1.1c-0.9,0-1.9,0-2.7-0.2c-0.2-0.1-0.6,0.2-0.6,0.2 c1,0.4,1.6,1.4,1.9,2.4c0.3,1.1,0,2.7-1.4,2.7c-2,0-2.1-3.5-1.5-4.7c-0.2,0-0.4,0.1-0.6,0.1c-0.3,1-1.1,1.8-2.1,2.2 c-1.1,0.5-2-0.3-2.2-1.4c-0.5-2.5,2.6-3.4,4.5-2.5c0.1,0.1,0.7-0.2,0.6-0.2c-0.9-0.6-1.4-1.8-1.6-2.8c-0.2-0.9-0.3-2.7,1.1-2.4 c1.1,0.2,1.3,1.6,1.3,2.6c0,1-0.2,2.2-0.8,3.1C113,309.5,113.6,309.5,113.7,309.3L113.7,309.3z"></path> </g> </g> <g> <path class="st1" d="M123.1,202.3c-1,0-1.8,1.2-1.8,2.7c0,1.5,0.8,2.7,1.8,2.7h17c0,0-2.5,3.6,4.4,8.5l3.4,2 c-3.5-2.5-8-4.1-12.2-4.4c-4.5-0.3-9.1-0.8-13.6-1.3c-4.1-0.5-8.2-1.1-11.5-3.8c-0.3-0.3-0.6-0.6-0.9-0.9l0,0 c1.5-0.5,2.9-1.2,3.9-2.4c1.5-0.5,3-1.1,4.5-1.8C119.6,203,121.2,202.4,123.1,202.3L123.1,202.3z"></path> <g> <path class="st1" d="M123.1,202.2c-3,0.3-2.9,5.7,0.2,5.8c2.6,0.1,5.3,0,7.9,0c2.7,0,5.5,0,8.2,0c0.1,0,0.4-0.1,0.5,0 c-0.3-0.2-0.2,0-0.4,0.3c-0.4,0.8-0.3,1.9,0,2.7c1.1,3.7,4.9,5.7,8,7.5c0.2,0.1,0.7-0.1,0.6-0.2c-2.5-1.8-5.3-3.1-8.3-3.8 c-3.3-0.8-6.8-0.8-10.1-1.1c-3.5-0.4-7.1-0.7-10.6-1.2c-3.4-0.5-6.8-1.6-9.2-4.2c-0.1-0.1-0.7,0-0.6,0.2c0,0,0,0,0,0 c0,0.1,0.4,0,0.4,0c0.9-0.3,1.8-0.7,2.6-1.2c0.9-0.6,1.5-1.2,2.5-1.6c2.7-1,5.2-2.6,8.2-2.8c0.1,0,0.5-0.1,0.5-0.2c0,0,0,0,0,0 c0-0.2-0.6,0-0.6,0.2c0,0,0,0,0,0C122.9,202.4,123.1,202.3,123.1,202.2c-2.4,0.1-4.5,1.1-6.7,2.1c-1,0.4-2.3,0.7-3.2,1.3 c-0.6,0.4-1.1,1-1.7,1.4c-0.6,0.4-1.3,0.7-2,0.9c0.1,0,0.3,0,0.4,0c0,0,0,0,0,0c-0.2,0.1-0.4,0.1-0.6,0.2 c4.5,4.7,12.1,4.7,18.1,5.3c3.5,0.4,7.1,0.4,10.6,1c3.4,0.6,6.7,2,9.5,4c0.2-0.1,0.4-0.2,0.6-0.2c-2.5-1.5-5-2.9-6.8-5.2 c-1-1.3-2-3.6-0.9-5.2c0.1-0.1-0.1-0.2-0.2-0.2c-3.3,0-6.6,0-10,0c-1.9,0-3.8,0-5.7,0c-0.4,0-0.8,0.1-1.2,0 c-2-0.3-2.4-4.9-0.2-5.1C123.3,202.5,123.6,202.1,123.1,202.2z"></path> </g> </g> <g> <g> <path class="st6" d="M191.6,144.3c-0.9-1.2-2.7-0.5-3.5,0.5c-0.5,0.7-0.6,1.6-0.4,2.4c0.1,0.6,0.4,1.3,0.8,1.7 c1.7,1.7,4.8,0.3,5.6-1.7c0.2-0.6,0.3-1.2,0.1-1.8c-0.3-0.8-0.9-1.4-1.5-1.8c-0.2-0.1-0.8,0.1-0.5,0.3c0.9,0.7,1.7,1.7,1.5,2.9 c-0.2,0.9-0.9,1.7-1.7,2.1c-0.4,0.2-0.8,0.3-1.3,0.4c-0.2,0-0.4,0-0.6-0.1c-0.2-0.1-0.4-0.1-0.6-0.2c-0.4-0.3-0.7-0.7-0.9-1.1 c-0.3-0.7-0.4-1.5-0.2-2.2c0.2-0.6,0.6-1.2,1.2-1.5c0.2-0.1,0.5-0.1,0.7-0.1c0.3,0.1,0.5,0.2,0.7,0.5 C191.2,144.7,191.8,144.5,191.6,144.3L191.6,144.3z"></path> </g> </g> <g> <g> <path class="st6" d="M176,156.1c-1.8-1.3-4.3-0.1-5.3,1.6c-0.5,0.9-0.6,2-0.2,2.9c0.4,0.7,1,1.4,1.8,1.7c1.3,0.6,2.8,0,3.8-0.9 c0.9-0.9,1.6-2.2,1.5-3.5c-0.1-1.6-1.6-2.3-3-2.5c-0.3,0-0.5,0-0.8-0.1c-0.1,0-0.4,0-0.4,0.2c-0.1,0.1,0.1,0.2,0.2,0.2 c1.3,0,2.9,0.4,3.3,1.9c0.3,1.1-0.1,2.3-0.8,3.2c-0.4,0.5-0.8,0.9-1.3,1.1c-0.4,0.2-0.9,0.4-1.4,0.3c-1.6-0.2-2.7-2-2.5-3.5 c0.3-1.9,2.7-3.7,4.5-2.4c0.1,0.1,0.3,0.1,0.4,0C175.9,156.3,176.2,156.2,176,156.1L176,156.1z"></path> </g> </g> <g> <g> <path class="st6" d="M181.9,152.9c-0.4-0.2-0.9-0.3-1.4-0.2c-0.3,0.1-0.5,0.2-0.7,0.4c-0.2,0.2-0.3,0.4-0.4,0.7 c-0.1,0.3-0.1,0.7-0.1,1c0,0.2,0.1,0.3,0.1,0.5c0.1,0.3,0.4,0.4,0.7,0.5c0.3,0.1,0.7,0,1-0.1c0.3-0.1,0.6-0.3,0.9-0.5 c0.5-0.4,1-0.9,0.9-1.5c0-0.3-0.2-0.5-0.5-0.7c-0.4-0.2-0.9-0.3-1.4-0.3c-0.2,0-0.3,0-0.5,0c-0.1,0-0.3,0.1-0.4,0.3 c0,0.2,0.2,0.2,0.3,0.2c0,0,0.1,0,0.1,0c-0.1,0,0,0,0.1,0c0.1,0,0.1,0,0.2,0c0.1,0,0.2,0,0.4,0c0.1,0,0.1,0,0.2,0c0,0,0,0,0.1,0 c-0.1,0,0,0,0,0c0.1,0,0.2,0,0.3,0.1c0,0,0.1,0,0.1,0c0,0-0.1,0,0,0c0,0,0,0,0.1,0c0.1,0,0.1,0.1,0.2,0.1c0,0,0,0,0,0c0,0,0,0,0,0 c0,0,0,0,0.1,0.1c0,0,0,0,0,0.1c0,0,0-0.1,0,0c0,0,0,0,0,0c0,0.1,0,0.1,0,0.2c0,0.1,0,0,0,0c0,0,0,0,0,0c0,0,0,0.1,0,0.1 c0,0.1,0,0.1,0,0.2c0,0,0-0.1,0,0c0,0,0,0,0,0c0,0,0,0.1,0,0.1c0,0.1-0.1,0.1-0.1,0.2c0,0-0.1,0.1,0,0c0,0,0,0.1-0.1,0.1 c-0.1,0.1-0.2,0.2-0.3,0.3c0,0,0,0,0,0c0,0,0,0,0,0c0,0-0.1,0.1-0.1,0.1c-0.1,0-0.1,0.1-0.2,0.1c0,0-0.1,0-0.1,0.1c0,0,0,0,0,0 c0,0-0.1,0,0,0c0.1,0,0,0,0,0c0,0,0,0,0,0c0,0-0.1,0-0.1,0c-0.1,0-0.1,0.1-0.2,0.1c0,0,0,0,0,0c0,0,0.1,0,0,0c0,0-0.1,0-0.1,0 c-0.1,0-0.1,0-0.2,0c0.1,0,0,0,0,0c0,0-0.1,0-0.1,0c0,0,0,0,0,0c-0.1,0,0.1,0,0,0c0,0-0.1,0-0.1,0c0,0,0,0,0,0c0,0-0.1,0,0,0 c0,0-0.1,0-0.1,0c0,0,0,0-0.1,0c0,0,0.1,0,0,0c0,0,0,0,0,0c0,0,0,0-0.1,0c0,0,0,0,0,0c0,0,0,0,0,0c0,0,0,0,0,0 c0,0-0.1-0.1-0.1-0.1c0,0,0,0,0,0c0,0,0,0.1,0,0c0,0,0-0.1,0-0.1c0-0.1,0-0.1-0.1-0.2c0-0.1,0-0.2,0-0.4c0-0.2,0-0.3,0-0.5 c0,0,0-0.1,0-0.1c0,0,0,0,0,0c0,0,0,0,0,0c0-0.1,0-0.1,0.1-0.2c0,0,0,0,0-0.1c0,0,0-0.1,0,0c0,0,0.1-0.1,0.1-0.1c0,0,0,0,0,0 c0,0,0,0,0,0c0,0,0,0,0.1,0c0,0,0,0,0.1,0c0.1,0-0.1,0,0,0c0,0,0,0,0.1,0c0,0,0.1,0,0,0c-0.1,0,0,0,0,0c0,0,0,0,0.1,0 c0,0,0.1,0,0,0c-0.1,0,0,0,0,0c0,0,0.1,0,0.1,0c0.1,0,0,0,0,0c0,0,0,0,0.1,0c0,0,0.1,0,0.1,0c0,0,0.1,0,0.1,0c-0.1,0,0,0,0,0 c0,0,0.1,0,0.1,0c0.1,0,0.2,0.1,0.3,0.1c0.1,0.1,0.4,0,0.5-0.1C182.1,153.1,182,153,181.9,152.9L181.9,152.9z"></path> </g> </g> <path class="st6" d="M163.7,147.5c-0.2-0.5-0.6-0.8-1-1c0,0,0-0.1-0.1-0.1c-0.3-0.1-0.5-0.1-0.8-0.1c-0.5,0-1,0.1-1.4,0.3 c-0.4,0.2-0.1,0.4,0.2,0.3c-0.3,0.4-0.5,0.9-0.5,1.4c-0.1,1.4,1.3,2.3,2.6,1.8C163.9,149.8,164.2,148.5,163.7,147.5z"></path> <path class="st11" d="M184.4,157.6c-0.3-0.2-0.8-0.2-1.2,0c-0.6,0.4-0.6,1.3-0.1,1.7C184,160,185.5,158.2,184.4,157.6z"></path> <path class="st11" d="M167,90.8c-0.8-0.5-1.9-0.6-2.8-0.1c-1.4,0.8-1.4,2.9-0.1,3.9C166.1,96.2,169.6,92.1,167,90.8z"></path> <g> <g> <path class="st6" d="M170.7,134.7c-0.7-1.7,0-3.5,1.5-4.5c1.3-0.9,3.3-1.3,4.6-0.2c1.2,1,1.7,2.9,0.8,4.2 c-0.9,1.2-2.3,1.8-3.5,2.6c-1.3,0.9-2.4,2.1-2.2,3.8c0,0.2,0.7,0.1,0.6-0.2c-0.5-3.6,4.5-4,5.9-6.5c0.8-1.4,0.1-3.4-1.2-4.3 c-1.5-1-3.5-0.6-5,0.2c-1.8,1-2.9,3.1-2,5.1C170.2,135.1,170.8,134.9,170.7,134.7L170.7,134.7z"></path> </g> </g> <g> <g> <path class="st6" d="M173.4,143c-0.9,0-1.9,0.5-2.3,1.3c-0.1,0.2-0.2,0.5-0.2,0.8c0,0.2,0,0.3,0,0.5c0.1,0.3,0.3,0.4,0.5,0.5 c0.6,0.2,1.3,0,1.8-0.2c0.6-0.3,1.1-0.7,1.3-1.3c0.2-0.7-0.2-1.3-0.8-1.7c-0.1-0.1-0.2-0.1-0.3-0.2c-0.1-0.1-0.3,0-0.5,0 c-0.1,0.1-0.2,0.2,0,0.3c0.3,0.2,0.6,0.4,0.8,0.8c0,0.1,0,0.1,0.1,0.1c0,0.1,0,0.1,0.1,0.2c0,0.1,0,0.1,0,0.2c0,0.1,0,0,0,0 c0,0,0,0,0,0c0,0,0,0.1,0,0.1c0,0.1,0,0.1,0,0.2c0,0,0,0.1,0,0c0,0,0,0.1,0,0.1c0,0.1-0.1,0.1-0.1,0.1c0,0,0,0.1-0.1,0.1 c0,0,0,0,0,0c0,0,0,0,0,0c0,0-0.1,0.1-0.1,0.1c0,0,0,0-0.1,0.1c0,0,0,0,0,0c0,0,0.1,0,0,0c-0.1,0.1-0.2,0.2-0.3,0.2c0,0,0,0,0,0 c0,0,0,0,0,0c0,0-0.1,0-0.1,0c-0.1,0-0.1,0.1-0.2,0.1c0,0,0,0,0,0c0,0,0,0,0,0c0,0-0.1,0-0.1,0c-0.1,0-0.1,0-0.2,0.1 c0,0-0.1,0-0.1,0c0,0,0.1,0,0,0c0,0,0,0,0,0c-0.1,0-0.1,0-0.2,0c0,0,0,0,0,0c-0.1,0,0.1,0,0,0c0,0-0.1,0-0.1,0c0,0-0.1,0-0.1,0 c0,0-0.1,0,0,0c0,0-0.1,0-0.1,0c0,0,0,0-0.1,0c0.1,0,0,0,0,0c0,0,0,0-0.1,0c0,0-0.1-0.1,0,0c0,0,0,0,0,0c0,0,0,0-0.1-0.1 c0,0,0,0,0-0.1c0,0,0-0.1,0,0c0,0,0,0,0,0c0-0.1,0-0.1,0-0.2c0,0,0,0,0-0.1c0,0,0,0,0,0c0,0.1,0,0,0,0c0-0.1,0-0.3,0-0.4 c0-0.2,0.1-0.5,0.3-0.7c0-0.1,0.1-0.2,0.2-0.2c0,0,0,0,0,0c0,0,0,0,0,0c0,0,0,0,0,0c0,0,0.1-0.1,0.1-0.1c0,0,0.1-0.1,0.1-0.1 c-0.1,0,0,0,0,0c0,0,0.1,0,0.1,0c0,0,0.1,0,0.1-0.1c0,0,0.1,0,0,0c0,0,0.1,0,0.1,0c0,0,0.1,0,0.1,0c0,0,0,0,0.1,0c0,0,0,0,0,0 c0,0,0,0,0,0c0,0,0.1,0,0.1,0c0,0,0,0,0.1,0c0.1,0,0,0,0,0c0.1,0,0.3,0,0.4-0.2C173.7,143.1,173.5,143,173.4,143L173.4,143z"></path> </g> </g> <g> <g> <path class="st11" d="M153.1,112.3c-0.9-0.7,0.7-1.9,1.3-2.2c1.4-0.7,3-0.4,3.9,0.8c0.7,0.9,0.9,2,0.2,3c-0.6,0.9-1.6,1.5-2.3,2.3 c-0.9,0.9-1.5,1.9-1.1,3.2c0.1,0.3,0.7,0.1,0.6-0.2c-0.7-2.7,2.8-3.7,3.7-5.8c0.6-1.3-0.1-2.6-1.1-3.5c-1.2-1-3-0.9-4.3-0.2 c-0.8,0.4-2.5,1.8-1.4,2.8C152.8,112.8,153.4,112.6,153.1,112.3L153.1,112.3z"></path> </g> </g> <g> <g> <path class="st11" d="M156.3,120.8c-0.1,0.1-0.3,0.2-0.4,0.3c-0.1,0.1-0.2,0.2-0.3,0.3c-0.1,0.1-0.1,0.1-0.1,0.2 c0,0.1-0.1,0.2-0.1,0.2c0,0.1,0,0.1,0,0.2c0,0.1,0.1,0.1,0.1,0.2c0.1,0.1,0.1,0.1,0.2,0.1c0.1,0,0.2,0.1,0.2,0.1 c0.1,0,0.1,0,0.2,0c0.1,0,0.2,0,0.3,0c0.1,0,0.2,0,0.3,0c0.1,0,0.2,0,0.3-0.1c0.1,0,0.2-0.1,0.3-0.1c0,0,0.1-0.1,0.1-0.1 c0,0,0,0,0.1-0.1c0,0,0.1-0.1,0.1-0.1c0,0,0-0.1,0.1-0.1c0-0.1,0-0.1,0-0.2c0-0.1,0-0.2,0-0.3c0-0.1-0.1-0.2-0.1-0.3 c-0.1-0.1-0.1-0.2-0.2-0.3c-0.1-0.1-0.2-0.2-0.3-0.3c-0.1-0.1-0.1-0.1-0.2-0.2c0,0,0,0-0.1,0c0,0-0.1,0-0.1,0c0,0-0.1,0-0.1,0 c0,0-0.1,0-0.1,0c0,0,0,0-0.1,0c0,0-0.1,0.1-0.1,0.1c0,0,0,0,0,0c0,0,0,0.1,0,0.1c0.1,0.1,0.3,0.2,0.4,0.4 c0.1,0.1,0.2,0.2,0.3,0.3c0,0.1,0.1,0.1,0.1,0.2c0,0,0,0,0,0c0.1,0.1,0.1,0.2,0.1,0.3c0,0,0,0.1,0,0.1c0,0,0,0,0,0 c0,0.1,0,0.1,0,0.2c0,0,0,0,0,0c0,0,0,0,0,0c0,0,0,0.1-0.1,0.1c0,0,0,0,0,0c0,0-0.1,0.1-0.1,0.1c0,0,0,0,0.1,0c0,0-0.1,0-0.1,0.1 c0,0,0,0,0.1,0c0,0-0.1,0-0.1,0.1c0,0,0.1,0,0.1,0c-0.1,0-0.1,0-0.2,0c0,0,0.1,0,0.1,0c-0.1,0-0.1,0-0.2,0c0,0,0,0,0,0 c0,0,0.1,0,0.1,0c-0.1,0-0.1,0-0.2,0c0,0,0,0-0.1,0c0,0,0,0,0.1,0c-0.1,0-0.1,0-0.2,0c0,0,0,0-0.1,0c0,0,0,0,0.1,0 c-0.1,0-0.1,0-0.2-0.1c0,0,0,0,0,0c0,0,0,0,0,0c0,0-0.1-0.1-0.1-0.1c0,0,0,0,0,0c0,0,0,0,0,0c0,0,0-0.1,0-0.1c0,0,0,0,0,0 c0,0,0,0,0,0c0-0.1,0-0.1,0-0.2c0,0,0,0,0-0.1c0,0,0,0,0,0c0-0.1,0.1-0.1,0.1-0.2c0,0,0,0,0.1-0.1c0,0,0,0,0,0 c0.1-0.1,0.2-0.2,0.3-0.3c0,0,0.1-0.1,0.1-0.1c0,0,0,0-0.1,0c0,0,0.1-0.1,0.1-0.1c0,0,0.1,0,0.1-0.1c0,0,0,0,0-0.1 c0-0.1,0-0.1-0.1-0.1c-0.1,0-0.1,0-0.2,0C156.5,120.7,156.4,120.8,156.3,120.8L156.3,120.8z"></path> </g> </g> <g> <g> <path class="st6" d="M161.8,121.7c-1.2-0.3-2.6,0.3-3,1.5c-0.2,0.5-0.1,1.1,0.2,1.6c0.3,0.5,0.9,0.8,1.4,1 c1.7,0.5,3.3-1.3,2.9-2.9c-0.3-1.1-1.4-1.6-2.5-1.7c-0.2,0-0.3,0-0.4,0.2c-0.1,0.1,0.1,0.3,0.2,0.3c0.8,0,1.6,0.3,1.9,1 c0.3,0.6,0.1,1.3-0.2,1.8c-0.1,0.3-0.4,0.5-0.6,0.6c-0.1,0,0,0-0.1,0c0,0-0.1,0-0.1,0c0,0-0.1,0-0.1,0c-0.1,0,0.1,0,0,0 c0,0-0.1,0-0.1,0c0,0-0.1,0-0.1,0c0,0,0,0-0.1,0c-0.1,0,0,0,0,0c0,0-0.1,0-0.1,0c0,0-0.1,0-0.1,0c-0.4,0-0.7-0.2-1-0.4 c-0.4-0.3-0.7-0.7-0.7-1.3c0-1.1,1.1-1.9,2.1-1.6c0.2,0,0.3,0,0.5-0.1C162,121.9,162,121.8,161.8,121.7L161.8,121.7z"></path> </g> </g> <g> <g> <path class="st6" d="M147.7,114.1c-0.8-0.1-1.8,0-2.3,0.7c-0.2,0.3-0.3,0.7-0.3,1.1c0,0.2,0,0.5,0.1,0.7c0,0.1,0.1,0.2,0.2,0.3 c0.4,0.3,1.1,0.2,1.5,0c0.6-0.2,1.2-0.6,1.4-1.2c0.3-0.9-0.4-1.6-1-2c-0.1-0.1-0.3-0.1-0.5,0c-0.1,0.1-0.2,0.3,0,0.3 c0.3,0.2,0.6,0.4,0.8,0.8c0,0,0,0.1,0.1,0.1c0,0,0,0,0,0c0,0,0,0,0,0c0,0.1,0,0.1,0.1,0.2c0,0,0,0.1,0,0.1c0,0.1,0,0,0,0 c0,0.1,0,0.1,0,0.2c0,0,0,0.1,0,0.1c0,0,0,0,0,0c0,0.1,0,0.1-0.1,0.2c0,0,0,0.1,0,0c0,0,0,0.1-0.1,0.1c0,0-0.1,0.1-0.1,0.1 c0,0-0.1,0.1,0,0c0,0,0,0-0.1,0.1c0,0-0.1,0.1-0.2,0.1c0,0,0,0-0.1,0c-0.1,0.1,0,0,0,0c-0.1,0-0.1,0.1-0.2,0.1 c-0.1,0-0.1,0-0.2,0.1c0,0,0,0,0,0c0,0,0.1,0,0,0c0,0-0.1,0-0.1,0c-0.1,0-0.1,0-0.2,0c0,0,0,0-0.1,0c0,0,0,0,0,0c0,0,0.1,0,0,0 c0,0-0.1,0-0.1,0c0,0-0.1,0-0.1,0c-0.1,0,0.1,0,0,0c0,0-0.1,0-0.1,0c0,0,0,0,0,0c0,0,0,0-0.1,0c0,0,0,0-0.1,0c0.1,0,0,0,0,0 c0,0,0,0,0,0c0,0,0-0.1,0,0c0,0,0,0,0,0c0,0,0,0,0,0c0,0,0,0,0,0c0,0,0-0.1,0-0.1c0-0.1,0-0.1,0-0.2c0-0.2-0.1-0.4,0-0.6 c0-0.1,0-0.2,0-0.2c0,0,0,0,0-0.1c0,0,0,0,0,0c0,0,0-0.1,0-0.1c0,0,0-0.1,0.1-0.1c0,0,0,0,0,0c0,0,0,0,0-0.1c0,0,0-0.1,0.1-0.1 c0,0,0,0,0,0c0,0.1,0,0,0,0c0,0,0.1-0.1,0.1-0.1c0,0,0.1,0,0,0c0,0,0,0,0.1,0c0,0,0.1,0,0.1-0.1c0,0,0,0,0,0c0.1,0-0.1,0,0,0 c0.1,0,0.2-0.1,0.3-0.1c0,0,0,0,0.1,0c0,0,0,0,0,0c0,0,0,0,0,0c0.1,0,0.1,0,0.2,0c0.1,0,0.2,0,0.3,0c0.1,0,0.2,0,0.3,0 c0.2,0,0.3,0,0.4-0.2C148,114.3,147.9,114.1,147.7,114.1L147.7,114.1z"></path> </g> </g> <g> <g> <path class="st6" d="M146.5,111.7c-0.3-0.7-0.4-1.4-0.5-2.1c-0.1-0.9-0.2-1.9-0.3-2.8c-0.2-1.4-0.3-3.1-1.4-4 c-0.3-0.2-0.7-0.4-1.1-0.2c-0.3,0.2-0.4,0.6-0.4,0.9c0,1.3,0.3,2.6,0.7,3.8c0.2,0.8,0.5,1.5,0.8,2.3c0.3,0.6,0.5,1.2,0.9,1.6 c0.2,0.2,0.8,0,0.6-0.3c-0.7-0.8-1.1-2-1.5-3c-0.4-1.2-0.8-2.4-0.9-3.7c0-0.4-0.1-0.8,0-1.2c0,0,0-0.1,0-0.1c0,0-0.1,0-0.1,0 c0,0,0,0,0.1,0c0.1,0,0.2,0.1,0.2,0.2c1,0.8,1.1,2.5,1.3,3.7c0.1,0.9,0.2,1.9,0.3,2.8c0.1,0.7,0.2,1.5,0.5,2.2 C146,112.2,146.7,112,146.5,111.7L146.5,111.7z"></path> </g> </g> <g> <g> <path class="st11" d="M153.6,98.6c-1.6-0.6-3.4,0-4.3,1.4c-0.4,0.6-0.5,1.4-0.4,2.1c0.2,0.8,0.7,1.5,1.4,2c1.1,0.7,2.5,0.7,3.5,0 c0.9-0.6,1.5-1.8,1.5-2.9c0-0.6-0.2-1.2-0.6-1.6c-0.5-0.6-1.3-0.8-2.1-0.9c-0.1,0-0.3,0-0.5,0.1c-0.1,0.1-0.1,0.2,0.1,0.2 c1.1,0.1,2.1,0.7,2.4,1.8c0.2,1-0.2,2-0.8,2.7c-0.7,0.8-1.5,1-2.4,0.6c-1.3-0.6-2.2-2-1.8-3.4c0.2-0.7,0.6-1.4,1.3-1.7 c0.7-0.4,1.5-0.4,2.3-0.1c0.1,0.1,0.3,0,0.5-0.1C153.6,98.8,153.7,98.6,153.6,98.6L153.6,98.6z"></path> </g> </g> <g> <g> <path class="st6" d="M147.2,95.5c-0.4,0.1-0.8,0.4-1.1,0.6c-0.3,0.3-0.6,0.6-0.6,1c-0.1,0.9,0.9,1.5,1.6,1.5 c0.7,0.1,1.4-0.2,1.8-0.7c0.3-0.4,0.5-1,0.4-1.5c-0.2-0.8-1-1.1-1.7-1.2c-0.2,0-0.3,0-0.5,0.1C147,95.4,147.1,95.5,147.2,95.5 c0.6,0.1,1.2,0.3,1.4,0.9c0.2,0.4,0.1,0.9-0.1,1.3c-0.1,0.2-0.3,0.4-0.5,0.5c0,0-0.1,0.1,0,0c0,0-0.1,0-0.1,0c0,0-0.1,0-0.1,0 c0.1,0,0,0,0,0c0,0,0,0,0,0c0,0,0.1,0,0,0c0,0-0.1,0-0.1,0c-0.1,0,0.1,0,0,0c0,0-0.1,0,0,0c0,0-0.1,0-0.1,0c0,0-0.1,0,0,0 c-0.1,0-0.1,0-0.2,0c-0.1,0-0.3-0.1-0.4-0.1c-0.4-0.2-0.7-0.5-0.8-0.9c-0.1-0.4,0.2-0.7,0.4-1c0.1-0.1,0.3-0.3,0.4-0.3 c0.1-0.1,0.2-0.1,0.2-0.1c0,0,0,0,0.1,0c0.1,0-0.1,0,0,0c0,0,0.1,0,0.1-0.1c0.1,0,0.3-0.1,0.2-0.2 C147.5,95.4,147.2,95.4,147.2,95.5L147.2,95.5z"></path> </g> </g> <g> <g> <path class="st1" d="M144.7,161.2c-4-10.4-12-20.4-23-23.7c-1.3-0.4-2.5-0.7-3.8-0.8c-0.6-0.1-1.3-0.2-1.9-0.2 c-0.9-0.1-1.9,0.1-2.7-0.2c-1.4-0.5-2.6-1-4-1.3c-1.8-0.3-3.6-0.4-5.3-0.4c-1.5,0-3-0.3-4.5-0.2c-1.8,0.1-3.6,0.5-5.4,1 c-3,0.7-6,1.4-9,2.3c-3.6,1.1-7.4,2.8-10.7,4.7c-4.6,2.8-8.4,7.6-10.3,12.6c-2.2,5.7-2.2,12-1.2,17.9c1,6.3,2.9,12.8,6,18.5 c3.6,6.5,9.4,11.2,16.3,13.8c1.5,0.6,3,1,4.6,1c1.2,0,2,0,2.9,0.9c0.4,0.5,0.8,1.1,1.3,1.5c2.1,1.6,5.3,0.7,7.6,0 c-0.1-0.2-0.2-0.3-0.3-0.5c0,0-0.1,0-0.1,0c-0.1,0-0.4,0.2-0.3,0.4c0.2,0.4,1.8,0.2,2,0.3c1.4,0.2,2.8,0.2,4.2-0.1 c2.4-0.5,5-1.3,6.7-3.1c4.1-4.6,2.5-11.2-1.4-15.4c-0.2,0.2-0.4,0.3-0.5,0.5c4.1-0.7,8.2-1.6,12-3.3c1.6-0.7,3.3-1.6,4.6-2.8 c1.5-1.4,2.7-3.1,3.6-4.9c-0.3,0-0.7,0.1-1,0.1c1.2,3,4.5,5.8,7.9,5.3c3.1-0.5,5.7-3.1,6.9-5.8 C148.6,173.8,146.8,166.8,144.7,161.2c-0.1-0.4-1.1-0.1-1,0.3c1.8,4.8,3.2,10.3,2.1,15.4c-0.6,2.8-2.1,5.4-4.5,6.9 c-2.1,1.3-4.3,1.2-6.2-0.3c-1.2-0.9-2.4-2.3-3-3.7c-0.1-0.3-0.8-0.1-1,0.1c-0.9,1.6-1.9,3.2-3.2,4.5c-1.3,1.3-3.1,2.2-4.8,2.9 c-3.5,1.5-7.3,2.3-11.1,2.9c-0.1,0-0.8,0.2-0.5,0.5c3.4,3.6,5.1,8.8,2.5,13.4c-1.3,2.3-3.3,3.3-5.8,4c-2.2,0.5-4.4,0.4-6.6,0.2 c0.1,0.1,0.2,0.1,0.3,0.2c0,0,0,0,0,0c-0.1,0.1-0.2,0.2-0.3,0.4c0,0,0.1,0,0.1,0c0.6-0.2,0.2-0.6-0.3-0.5 c-1.2,0.3-2.4,0.7-3.6,0.7c-1.7,0.1-2.8-0.4-3.9-1.7c-0.6-0.7-1.2-1.3-2.1-1.4c-0.7-0.1-1.4,0-2,0c-1.1-0.1-2.1-0.3-3.1-0.7 c-6-2.1-11.5-5.9-15.2-11.2c-3.5-5.1-5.5-11.3-6.9-17.3c-1.3-5.6-1.9-11.5-0.8-17.2c1.1-5.8,4.3-11,8.8-14.8 c2.8-2.4,6.3-3.9,9.7-5.3c2.3-1,4.7-1.7,7.1-2.3c3.3-0.8,6.8-2,10.3-2.1c0.9,0,1.7,0.1,2.5,0.2c0.7,0.1,1.5,0,2.2,0 c1.8,0,3.5,0.2,5.3,0.6c0.8,0.2,1.7,0.5,2.5,0.8c0.6,0.3,0.7,0.4,1.3,0.4c1.5,0,3,0,4.6,0.3c12.3,2,21.5,13,25.7,24.1 C143.9,161.8,144.9,161.5,144.7,161.2z"></path> </g> </g> <path class="st8" d="M105.2,107.7c1,4.6,5.1,3.7,6.8,8.5c1.9,5,0.3,7.3-2.1,12.2c-0.4,0.8-1.4,2.8-2.2,3l-1.2,0.5 c0.5,3.3,3.3,12.2-1.5,14c-3.7,1.4-13.1,0.2-13.1-7.7c0-4.4-0.4-6.8-0.4-6.8L89,128l1.6-10.2l6.5-6.5l2.5-5.5L105.2,107.7z"></path> <path class="st7" d="M115.9,120.1c0.1-2.8-0.7-5.7-1.7-8.3c-1.7-4.5-7-8.8-11.9-8.9c-0.4,0-0.7,0-1.1,0.1c-0.2,0-0.5,0-0.7,0.1 c-0.9-1.4-3-1.5-4.5-1.5c-2.1,0-4,0.7-5.8,1.7c-0.8,0.3-1.5,0.7-2.1,1.3c-1.3,0.9-2.4,1.9-3.4,3.1c-2.1,2.5-2.5,5.8-2.4,9 c0.1,2.3,0.9,4.4,1.4,6.6c0.3,1.4,0.2,2.7,0.2,4c-0.1,0.2-0.1,0.3-0.1,0.5c0,0.2,0.1,0.4,0.1,0.7c0,0.6,0.1,1.2,0.3,1.8 c0.1,0.3,0.3,0.5,0.7,0.6c0.8,1.1,2,1.8,3.8,1.7c0.6,0,2.1-0.3,2.8-0.9c-0.4-1.4-0.6-2.9-0.7-4.4c-0.1-1.4-0.1-2.7,0.3-4.1 c0.2-0.7,1.6-3,2.1-3.5c1.7-1.8,4.5-2.3,6.6-3.4c0.7-0.3,1.3-0.7,1.8-1.2c0.6-0.5,1.1-1.2,1.5-1.9c0.7-1.3,1.2-2.9,1.3-4.5 c0.4,0.6,0.8,1.1,1.6,1.6c1,0.7,1.8,1.4,2.4,2.3c1,0.6,1.5,1.9,1.9,3.1c0.2,0.6,0.4,1.1,0.5,1.7c0.1,0.1,0.1,0.2,0.1,0.3 c0.2,0.9,0.3,1.7,0.3,2.5c0.1,0.4,0.2,0.9,0.3,1.3c0,0.7-0.1,1.4-0.2,2.1c0,1.1-0.2,2.3-0.6,3.3c0.2,0.3,0.5,0.5,1.3,0.5 c1.1-0.1,2.1,0.2,2.9-0.4c0.4-0.8,0.7-2.1,0.9-3c0-0.1,0-0.3,0.1-0.4c0.1-0.8,0.2-1.7,0.3-2.5C116,120.7,115.9,120.4,115.9,120.1z"></path> <g> <g> <path class="st1" d="M103.4,106.4c0.6,2.4,1.7,3.9,3.7,5.3c2.1,1.5,3.1,3.4,3.6,5.9c0.6,2.8,0.5,5.7-0.2,8.4 c-0.8,2.9-3,6.4-6.4,6.4c-3.8,0-6.9-3.6-9.3-6.1c-0.2-0.2-0.7,0.1-0.6,0.3c2.3,2.4,4.9,5.2,8.1,6c2.7,0.7,5.3-0.6,6.9-2.8 c1.8-2.4,2.4-5.6,2.4-8.5c0-2.7-0.4-5.9-2.1-8c-0.8-1-1.8-1.7-2.8-2.4c-1.5-1.2-2.3-2.8-2.8-4.6 C103.9,106,103.3,106.2,103.4,106.4L103.4,106.4z"></path> </g> </g> <g> <g> <path class="st1" d="M106.2,132.5c0.3,2.3,1,4.6,1.2,7c0.2,2.3,0,5.4-2.6,6.3c-0.4,0.1,0,0.4,0.3,0.3c2.6-0.9,3.1-3.6,3-6 c-0.1-2.6-0.8-5.2-1.2-7.8C106.8,132.2,106.2,132.3,106.2,132.5L106.2,132.5z"></path> </g> </g> <g> <g> <path class="st1" d="M97.5,102.6c6-0.6,7.8,6.8,4.9,11c-2.8,3.9-8.8,3.6-11,8c-1.7,3.2-1.1,6.6-0.3,10c0,0.2,0.6,0,0.6-0.2 c-0.8-3.3-1.3-6.7,0.3-9.9c1.3-2.4,3.7-3.2,6-4.3c2.2-1,4.5-2.4,5.6-4.6c1-2.1,1.1-4.8,0.2-6.9c-1.1-2.5-3.5-3.6-6.1-3.3 C97.3,102.4,97.1,102.7,97.5,102.6L97.5,102.6z"></path> </g> </g> <g> <g> <path class="st1" d="M91,122.1c-0.2,0.8-0.1,1.7,0.5,2.4c0.5,0.5,1.3,0.7,2,0.5c0.5-0.2,0.9-0.4,1.2-0.8c0.1-0.1-0.1-0.2-0.2-0.2 c-0.1,0-0.3,0.1-0.4,0.2c-0.2,0.2-0.5,0.4-0.7,0.5c0.1,0-0.1,0-0.1,0c0,0-0.1,0-0.1,0c0,0-0.1,0-0.1,0c0,0,0,0-0.1,0 c-0.1,0,0,0,0,0c-0.1,0-0.2,0-0.4,0c-0.6-0.2-1-0.7-1.1-1.3c-0.1-0.4-0.1-0.9,0-1.3C91.7,121.8,91.1,121.9,91,122.1L91,122.1z"></path> </g> </g> <g> <g> <path class="st1" d="M98.3,119.1c1.6,0.9,4.4,1.8,5.5-0.4c0.1-0.1-0.2-0.1-0.3-0.1c-0.1,0-0.3,0.1-0.3,0.2 c-0.2,0.4-0.5,0.7-0.9,0.9c-0.4,0.1-0.8,0.1-1.1,0.1c-0.8-0.1-1.6-0.5-2.3-0.9c-0.1-0.1-0.3,0-0.4,0 C98.4,118.9,98.2,119,98.3,119.1L98.3,119.1z"></path> </g> </g> <g> <g> <path class="st1" d="M107.4,118.2c0.8,0.3,1.7,0.5,2.6,0.3c0.9-0.2,1.6-0.7,2-1.5c0-0.1-0.2-0.1-0.2,0c-0.1,0-0.3,0.1-0.4,0.2 c-0.3,0.6-0.8,1.1-1.4,1.2c-0.7,0.2-1.4,0-2-0.3c-0.1,0-0.3,0-0.4,0C107.5,118,107.3,118.1,107.4,118.2L107.4,118.2z"></path> </g> </g> <g> <g> <path class="st1" d="M107,117.7c0,1.3,0.2,2.5,0.2,3.8c0,1-0.2,2.4-1.5,2.5c-0.3,0-0.5,0.5,0,0.5c3.1-0.2,2-4.8,2-6.8 C107.6,117.3,107,117.4,107,117.7L107,117.7z"></path> </g> </g> <g> <g> <path class="st1" d="M100,102.9c5.6-0.1,10.8,2.8,13.5,7.7c1.3,2.4,1.7,5,1.9,7.7c0.3,2.9,0.5,6.3-1.1,8.9 c0.2-0.1,0.3-0.1,0.5-0.2c-1.4-0.2-2.8-0.2-4.3-0.2c-0.2,0-0.6,0.4-0.2,0.4c1.4,0,2.8,0,4.1,0.2c0.1,0,0.4,0,0.5-0.2 c1.5-2.6,1.4-5.8,1.1-8.7c-0.2-2.9-0.6-5.8-2.1-8.4c-2.8-4.9-8.1-7.7-13.7-7.6C100,102.6,99.6,102.9,100,102.9L100,102.9z"></path> </g> </g> <g> <g> <path class="st1" d="M100,102.1c-5.7-3-12.7,1.3-16,6c-2.1,3-2.5,6.1-1.9,9.7c0.4,2.4,1.1,4.8,1.3,7.3c0.1,0.9,0,1.8-0.1,2.7 c-0.1,0.6-0.2,1.1-0.1,1.7c0.3,1.5,2.1,2.4,3.4,2.7c1.3,0.3,3.8,0.4,4.8-0.7c0.3-0.3-0.3-0.4-0.5-0.2c-0.5,0.5-1.7,0.5-2.3,0.6 c-1.2,0.1-2.4-0.2-3.4-0.9c-1.2-0.8-1.6-1.7-1.4-3.1c0.4-3.2-0.4-6.3-1-9.4c-0.6-3.2-0.6-6.3,1.1-9.2c1.5-2.5,3.7-4.7,6.3-6.1 c2.8-1.6,6.3-2.3,9.3-0.7C99.8,102.6,100.3,102.3,100,102.1L100,102.1z"></path> </g> </g> <path class="st22" d="M100.9,122C100.9,122,100.9,122,100.9,122c-0.1-0.3-0.4-0.5-0.7-0.5c-0.8-0.2-1.9,0.1-2.4,0.6 c-0.6,0.7-0.7,1.5-0.3,2.3c0.5,1,1.7,1.2,2.7,1.1c0.7-0.1,1.8-0.4,1.9-1.2C102.5,123.2,101.9,122.4,100.9,122z"></path> <g> <path class="st1" d="M111.2,124.2c0.3,0.6,0.7,2.1,2,2.9c-0.3-0.1-2.1-0.3-2.4-0.3c0-0.3,0.1-0.7,0.2-1l0.2-1.2L111.2,124.2z"></path> <g> <path class="st1" d="M110.9,124.3c0.2,0.5,0.4,0.9,0.6,1.4c0.3,0.6,0.8,1.2,1.4,1.5c0.2-0.1,0.4-0.2,0.5-0.2 c-0.1-0.1-0.3-0.1-0.5-0.1c-0.2,0-0.5-0.1-0.7-0.1c-0.4,0-0.8-0.1-1.2-0.1c0,0,0.1,0,0.1,0.1c0-0.3,0.1-0.7,0.2-1 c0-0.2,0.1-0.4,0.1-0.6c0-0.2,0.1-0.4,0.1-0.5c0-0.1,0-0.3,0-0.4C111.5,124,110.9,124.1,110.9,124.3c0,0.1,0,0.2,0,0.3 c0,0,0,0.1,0,0.1c0,0,0,0,0,0c0,0.2-0.1,0.4-0.1,0.6c0,0.2-0.1,0.4-0.1,0.6c-0.1,0.4-0.2,0.7-0.2,1.1c0,0,0.1,0.1,0.1,0.1 c0.4,0,0.8,0.1,1.2,0.1c0.2,0,0.5,0.1,0.7,0.1c0.2,0,0.3,0,0.4,0.1c0.1,0.1,0.3,0,0.4-0.1c0,0,0.2-0.1,0.1-0.2 c-0.6-0.4-1-0.9-1.4-1.5c-0.2-0.4-0.4-0.9-0.6-1.4C111.4,123.9,110.8,124.1,110.9,124.3z"></path> </g> </g> <g> <g> <path class="st1" d="M111,123c0,0.7,0.1,1.4,0.3,2c0.2,0.7,0.6,1.4,1.2,1.9c0.3,0.3,0.8,0.4,1.2,0.4c0.1,0,0.3,0,0.4-0.2 c0.1-0.1-0.1-0.2-0.2-0.2c-0.9,0-1.5-0.8-1.8-1.6c-0.3-0.8-0.5-1.6-0.5-2.4C111.6,122.6,111,122.7,111,123L111,123z"></path> </g> </g> <g> <g> <path class="st1" d="M111.4,117.4c0,0.1,0,0.1,0,0.2c0,0,0,0.1,0,0.1c0,0,0,0,0,0.1c0,0,0,0-0.1,0.1c0,0-0.1,0.1,0,0 c0,0-0.1,0.1-0.2,0.1c0,0,0.1,0,0,0c0,0,0,0,0,0c0,0-0.1,0-0.1,0c0,0,0,0,0,0c0,0,0,0,0,0c0,0,0,0,0,0c0,0-0.1,0-0.1,0 c0,0-0.1,0-0.1,0c0.1,0,0,0,0,0c0,0,0,0,0,0c-0.1,0-0.1,0-0.2,0c-0.1,0-0.2,0.1-0.3,0.2c0,0.1,0.1,0.1,0.2,0.1 c0.2,0,0.4-0.1,0.6-0.1c0.2-0.1,0.3-0.2,0.5-0.3c0.2-0.1,0.3-0.2,0.5-0.3c0.1-0.1,0.2-0.2,0.3-0.4c0.1-0.1,0.1-0.2,0-0.3 c-0.1-0.1-0.3,0-0.4,0c0,0-0.3,0.1-0.2,0.2c0,0,0,0,0,0c0,0,0,0,0,0c0,0,0,0,0,0c0,0,0,0,0,0c0,0,0,0,0,0c0,0,0,0,0,0.1 c0,0,0,0,0,0c0,0,0,0,0,0c0,0,0,0-0.1,0.1c0,0,0,0-0.1,0.1c0,0,0,0,0,0c0,0,0,0,0,0c0,0,0,0,0,0c-0.1,0.1-0.1,0.1-0.2,0.1 c0,0-0.1,0-0.1,0.1c0,0,0,0,0,0c0,0,0,0,0,0c0,0,0,0,0,0c-0.1,0-0.1,0.1-0.2,0.1c0,0-0.1,0-0.1,0.1c0,0,0,0,0,0c0,0,0,0,0,0 c0,0,0.1,0,0,0c0,0-0.1,0-0.1,0c0,0,0,0-0.1,0c-0.1,0,0.1,0,0,0c0,0,0,0,0,0c-0.1,0,0,0,0,0c0,0,0,0,0,0c0,0,0.1,0,0,0 c0,0.1-0.1,0.2-0.1,0.3c0.3-0.1,0.7-0.2,1-0.4c0.2-0.2,0.5-0.4,0.5-0.7c0-0.1-0.2-0.1-0.3-0.1c-0.1,0-0.2,0-0.2,0.1 C111.5,117.3,111.4,117.3,111.4,117.4L111.4,117.4z"></path> </g> </g> <g> <g> <path class="st1" d="M97.9,119.1c0,0.2,0.2,0.4,0.4,0.5c0.2,0.1,0.5,0.2,0.8,0.3c0.1,0,0.2,0.1,0.4,0.1c0.1,0,0.3,0,0.4-0.1 c0,0,0.1-0.1,0.1-0.1c0,0,0-0.1-0.1-0.1c-0.3-0.1-0.6-0.2-0.9-0.3c-0.1,0-0.2-0.1-0.2-0.1c0,0,0,0-0.1,0c0,0,0,0,0,0 c0,0-0.1,0-0.1-0.1c0,0-0.1-0.1-0.1-0.1c0,0,0,0,0,0c0,0,0,0,0,0c0,0,0,0,0,0c0,0,0,0,0,0c0-0.1-0.2-0.1-0.3-0.1 c-0.1,0-0.2,0-0.2,0.1C98,119,97.9,119.1,97.9,119.1L97.9,119.1z"></path> </g> </g> <g> <g> <path class="st1" d="M91.6,124.7c-0.4,0.8-0.9,1.6-1,2.6c-0.1,1.2,0,2.3,0.3,3.4c0,0.1,0.6,0,0.6-0.2c0-1.2-0.4-2.4-0.4-3.7 c0-1.1,0-2.3,0.5-3.4c-0.2,0-0.4,0.1-0.6,0.1c-0.2,0.5-0.3,1.1-0.3,1.6c0,0.1,0.6,0,0.6-0.1c0.1-0.3,0.2-0.5,0.3-0.7 c-0.2,0-0.4,0.1-0.6,0.1c-0.1,0.3-0.2,0.6-0.3,1c0,0.1,0.5,0,0.6-0.1c0.1-0.3,0.3-0.5,0.4-0.8c-0.2,0-0.4,0.1-0.6,0.1 c-0.1,0.1-0.1,0.2-0.1,0.4c0,0.1,0.5,0,0.6-0.1c0.1-0.1,0.2-0.2,0.3-0.4c-0.2,0-0.4,0.1-0.6,0.1c-0.1,0.1-0.1,0.2-0.1,0.3 c0,0.1,0.5,0,0.5-0.1c0.1-0.1,0.2-0.1,0.3-0.2c-0.2,0-0.4,0.1-0.6,0.1c-0.1,0.3-0.3,0.5-0.4,0.7c-0.1,0.1,0.2,0,0.2,0 c0.1,0,0.3-0.1,0.4-0.2c0.2-0.2,0.3-0.5,0.4-0.7c0-0.1-0.5,0-0.6,0.1c-0.1,0.1-0.1,0.1-0.2,0.2c0.2,0,0.4,0,0.5-0.1 c0-0.1,0.1-0.2,0.1-0.3c0-0.1-0.5,0-0.6,0.1c-0.1,0.1-0.2,0.2-0.3,0.4c0.2,0,0.4-0.1,0.6-0.1c0-0.1,0.1-0.2,0.1-0.4 c0-0.1-0.5,0-0.6,0.1c-0.1,0.3-0.3,0.5-0.4,0.8c0.2,0,0.4-0.1,0.6-0.1c0.1-0.3,0.2-0.6,0.3-1c0-0.1-0.5,0-0.6,0.1 c-0.1,0.2-0.2,0.5-0.3,0.7c0.2,0,0.4-0.1,0.6-0.1c0.1-0.5,0.2-1.1,0.3-1.6c0-0.1-0.5,0-0.6,0.1c-0.5,1-0.5,2.2-0.5,3.3 c0,1.3,0.4,2.5,0.4,3.8c0.2-0.1,0.4-0.1,0.6-0.2c-0.3-1.1-0.4-2.2-0.3-3.3c0.1-1,0.6-1.8,1-2.6C92.2,124.5,91.7,124.6,91.6,124.7 L91.6,124.7z"></path> </g> </g> <g> <g> <path class="st1" d="M91.4,124.4c-0.3,0.2-0.5,0.6-0.5,0.9c-0.1,0.4-0.1,0.7-0.2,1.1c0.2,0,0.4-0.1,0.6-0.1 c0.1-0.6,0.3-1.2,0.4-1.8C91.7,124.4,91.5,124.4,91.4,124.4c-0.1,0-0.2,0.1-0.3,0.2c-0.2,0.3-0.3,0.6-0.3,0.9 c0,0.1,0.3,0.1,0.3,0.1c0.1,0,0.3-0.1,0.3-0.2c0.1-0.5,0.2-1,0.3-1.5c0-0.2-0.6-0.1-0.6,0.1c-0.1,0.6-0.1,1.3-0.2,1.9 c0,0.2,0.6,0.1,0.6-0.1c0.1-0.6,0-1.3,0.2-1.9c-0.2,0-0.4,0.1-0.6,0.1c-0.1,0.5-0.1,1-0.3,1.5c0.2,0,0.4-0.1,0.6-0.1 c0-0.3,0.1-0.6,0.3-0.8c-0.2,0-0.4,0-0.6,0c-0.1,0.6-0.2,1.2-0.4,1.8c0,0.2,0.6,0.1,0.6-0.1c0.1-0.3,0.1-0.7,0.2-1 c0-0.2,0.1-0.3,0.1-0.5c0-0.1,0.1-0.1,0.1-0.2c0,0,0-0.1,0.1-0.1c0,0,0,0,0,0c0,0,0,0,0,0c0.1,0,0.2-0.1,0.1-0.2 C91.7,124.3,91.5,124.3,91.4,124.4L91.4,124.4z"></path> </g> </g> <g> <path class="st4" d="M132,180.1c0,0,10.4,17.2,26.7,0.9c0,0-0.3-10.1-8.8-7.9c0,0,3-5.3,3-12.5c0-2.1-2.6-1.7-2.6-1.7 s-1.3,8.9-7.7,18c-0.5,0.7-0.9,2.7,0,3.8c0.4,0.4,0.9,0.9,1.4,1.5C144.1,182.2,136.4,185.7,132,180.1z"></path> </g> <g> <g> <path class="st1" d="M148,185.2c1-0.1,2.3-0.5,2.4-1.7c0.1-1-0.5-2.1-1.1-2.8c-0.7-0.9-1.4-1.8-2.2-2.6c-0.2-0.2-0.5-0.5-0.7-0.7 c0,0-0.1-0.1-0.1-0.1c0-0.1,0,0.1,0,0c-0.1-0.3,0-0.8,0.3-1c0.6-0.5,1.4,0.1,1.7,0.6c0.2,0.4,0,1-0.2,1.4 c-0.2,0.5-0.4,0.9-0.4,1.4c0,0.3,0.7,0.2,0.6-0.1c0-0.9,0.7-1.7,0.6-2.6c-0.1-0.7-0.8-1.2-1.4-1.3c-0.6-0.1-1.3,0-1.7,0.5 c-0.3,0.3-0.4,1-0.2,1.4c0.2,0.3,0.5,0.5,0.7,0.7c0.4,0.4,0.8,0.8,1.1,1.2c0.8,0.9,1.6,1.9,2,3c0.2,0.5,0.3,1,0.1,1.5 c-0.3,0.6-1,0.7-1.6,0.8C147.7,184.8,147.5,185.3,148,185.2L148,185.2z"></path> </g> </g> <g> <g> <path class="st1" d="M147.9,166.5c-1.3,3.3-2.9,6.5-4.9,9.4c-0.7,1-1.2,1.9-1.2,3.2c0,1.4,1.1,2.2,2,3.2c0-0.1,0.1-0.2,0.1-0.3 c-3.9,1.8-8.9,1.5-11.7-2c-0.2-0.2-0.7,0-0.5,0.3c3,3.7,8.3,4,12.5,2.1c0.1,0,0.2-0.2,0.1-0.3c-1-1-2.1-1.8-2-3.4 c0.1-1.5,1.1-2.5,1.9-3.7c1.7-2.7,3.1-5.5,4.2-8.4C148.6,166.3,148,166.3,147.9,166.5L147.9,166.5z"></path> </g> </g> <g> <g> <path class="st1" d="M207.2,285.1c2.6,2.2,7.8,8.6,4,11.7c-2.7,2.2-6.9,1.3-10.2,1.1c-8.7-0.6-17.4-1.3-26.1-1.8 c-2.4-0.1-4.8-0.3-7.3-0.4c-0.9,0-1.9-0.1-2.8-0.1c-0.4,0-0.8,0-1.2,0c-0.8-0.1-0.8-1-0.7-1.7c0.1-0.4-1.1-0.7-1.2-0.5 c-0.2,1.1,0.1,2.1,1.1,2.6c0.7,0.3,1.6,0.2,2.4,0.3c2,0,4,0.1,6,0.2c5.3,0.3,10.5,0.6,15.8,1c4.6,0.3,9.2,0.7,13.8,1 c3.4,0.3,7.4,1,10.5-0.5c5.6-2.7-0.3-10.4-3.2-12.8C207.9,284.9,206.8,284.7,207.2,285.1L207.2,285.1z"></path> </g> </g> <g> <g> <path class="st1" d="M167.9,292.7c3.2-0.1,6.4,0.1,9.6,0.1c1.7,0,3.3,0.1,5,0.1c0.8,0,1.6,0.1,2.3,0c2.6-0.2,3.5-2.9,3.8-5.1 c0.1-0.5-1-0.4-1,0.1c-0.3,2-1,4.3-3.3,4.3c-1.6,0-3.2-0.1-4.9-0.1c-3.8-0.1-7.6-0.3-11.4-0.2C167.4,292,167.2,292.7,167.9,292.7 L167.9,292.7z"></path> </g> </g> <g> <g> <path class="st1" d="M44.6,163.5c-4.2,17.1,0.1,34.9,7.5,50.5c3.5,7.3,7.8,14.3,13.5,20c3,3,6.3,5.8,9.7,8.4 c3.5,2.7,7.3,5.1,11.4,6.7c4.6,1.8,9.4,2.7,14.2,3.6c5.2,1,10.4,1.6,15.7,1.5c0.6,0,1.5-0.9,0.5-0.9c-4.7,0.1-9.3-0.4-13.9-1.2 c-4.3-0.7-8.5-1.5-12.7-2.9c-8.4-2.7-15.5-8.3-21.9-14.2c-5.9-5.5-10.5-12.2-14.1-19.4c-3.7-7.3-6.6-15.1-8.4-23.1 c-2.1-9.6-2.4-19.6-0.1-29.2C46.2,162.8,44.7,163,44.6,163.5L44.6,163.5z"></path> </g> </g> <g> <g> <path class="st1" d="M86.7,137.4c-2.7,0.6-5.2,1.7-7.7,2.9c-1.5,0.7-3.2,1.4-4.6,2.3c-0.3,0.2,0,0.3,0.3,0.3 c9.3-2.3,18.1,3.7,24.3,10c1.6,1.6,3,3.3,4.4,5c0.7,0.9,1.5,1.8,2.2,2.7c0.7,0.8,1.5,2,2.4,2.5c0.9,0.5,2.3,0.1,3.2-0.3 c1.2-0.7,1.4-1.7,2-2.8c2-3.9,4.6-7.4,5.7-11.7c0.1-0.2-0.7-0.1-0.7,0.1c-0.9,3.8-3,7.1-4.9,10.4c-0.6,1.1-1.1,2.8-2,3.6 c-0.7,0.6-1.7,0.9-2.5,0.4c-0.5-0.3-0.9-0.8-1.3-1.2c-0.8-0.8-1.5-1.7-2.3-2.6c-5.2-6.2-11-12.7-18.8-15.6 c-3.6-1.4-7.9-1.7-11.7-0.8c0.1,0.1,0.2,0.2,0.3,0.3c1.3-0.9,3-1.5,4.4-2.2c2.4-1.1,4.9-2.3,7.5-2.8 C87.2,137.7,87.1,137.4,86.7,137.4L86.7,137.4z"></path> </g> </g> <g> <g> <path class="st1" d="M93.5,142.7c-0.6-0.9-1.1-1.9-1.2-3c-0.2-1.3-0.1-2.6-0.2-3.8c0-0.2-0.7-0.1-0.7,0.2c0,1.3-0.1,2.7,0.2,3.9 c0.2,1.1,0.6,2.1,1.3,3C93,143.2,93.7,142.9,93.5,142.7L93.5,142.7z"></path> </g> </g> <g> <g> <path class="st1" d="M110.5,136.2c0.6,0.2,1.1,0.5,1.7,0.8c1.6,0.8,3.1,1.9,4.4,3c0.1,0.1,0.3,0.1,0.5,0c0.1,0,0.3-0.2,0.2-0.3 c-1.4-1.2-2.9-2.3-4.5-3.1c-0.6-0.3-1.2-0.6-1.8-0.8C110.7,135.6,110.1,136,110.5,136.2L110.5,136.2z"></path> </g> </g> <g> <g> <path class="st1" d="M143.7,188.2c1.3,0.1,2.6-0.1,3.9-0.3c2.8-0.5,5.4-1.7,7.6-3.5c0.4-0.3-0.2-0.5-0.5-0.3 c-2.1,1.7-4.6,2.9-7.3,3.3c-1.1,0.2-2.3,0.3-3.5,0.3C143.6,187.7,143.2,188.2,143.7,188.2L143.7,188.2z"></path> </g> </g> </svg> 